<?xml version="1.0" encoding="UTF-8"?>
<svg version="1.1" xmlns="http://www.w3.org/2000/svg" width="512" height="512">
<path d="M0 0 C8.09591423 4.56315166 12.10757475 13.11445428 16.58148193 20.94082642 C18.46366247 24.2323313 20.36987518 27.50989275 22.2734375 30.7890625 C22.64344879 31.427798 23.01346008 32.06653351 23.39468384 32.72462463 C25.9482307 37.12413808 28.57330112 41.46425006 31.3125 45.75 C36.21861003 53.4565241 40.84944408 61.32545359 45.5 69.1875 C51.58579945 79.47494446 57.71451857 89.73242682 63.9375 99.9375 C70.4211614 110.57054489 76.802277 121.26117335 83.14550781 131.97851562 C88.68455071 141.33434031 94.27746139 150.65440012 99.9375 159.9375 C106.42076787 170.57078845 112.80227342 181.2611673 119.14550781 191.97851562 C125.36007613 202.47534923 131.6571792 212.91819783 138.00805664 223.33300781 C143.95292178 233.09344473 149.78292069 242.92034875 155.59906006 252.75790405 C160.54144026 261.11489451 165.50869381 269.44683077 170.76147461 277.61425781 C174.62940255 283.66096094 175.1871949 288.85592248 174.4375 295.9375 C172.625 299.4375 172.625 299.4375 170.4375 301.9375 C169.756875 302.80375 169.756875 302.80375 169.0625 303.6875 C165.16269611 306.68734915 160.53077746 307.18796423 155.75184631 307.19819641 C154.64304611 307.20528122 153.53424591 307.21236603 152.3918457 307.21966553 C150.58925293 307.2159494 150.58925293 307.2159494 148.75024414 307.2121582 C146.834589 307.2198246 146.834589 307.2198246 144.88023376 307.22764587 C141.38846558 307.24099922 137.89680587 307.24161869 134.40501714 307.23908257 C131.48510639 307.23801043 128.56521737 307.2429024 125.6453113 307.247688 C118.75449102 307.25877036 111.86372526 307.25922766 104.97290039 307.25317383 C97.8746439 307.24713347 90.77658559 307.25944943 83.67836291 307.2807439 C77.57371164 307.29838127 71.46912333 307.30435792 65.36444753 307.30110615 C61.72293704 307.29929665 58.08156796 307.30189608 54.44008064 307.31582069 C50.37797373 307.33077357 46.31626827 307.32141031 42.25415039 307.30981445 C41.05444611 307.31745819 39.85474182 307.32510193 38.61868286 307.33297729 C31.73475125 307.28953975 26.29541806 306.98673803 20.71606445 302.5769043 C16.41151846 297.30856454 13.06222809 291.51795793 9.69342041 285.61972046 C7.83353791 282.36495265 5.94854992 279.12474094 4.06640625 275.8828125 C3.68067444 275.21712753 3.29494263 274.55144257 2.89752197 273.86558533 C-0.95599905 267.22878097 -4.9355467 260.67326605 -8.9375 254.125 C-15.05430877 244.10625158 -21.08449226 234.03966445 -27.0625 223.9375 C-33.00281075 213.90040768 -38.9908432 203.8957 -45.0625 193.9375 C-51.54576787 183.30421155 -57.92727342 172.6138327 -64.27050781 161.89648438 C-69.80955107 152.54065909 -75.40248851 143.2206171 -81.0625 133.9375 C-88.1770364 122.26612199 -95.17984844 110.53089102 -102.14453125 98.76953125 C-102.52477448 98.12743713 -102.9050177 97.48534302 -103.29678345 96.8237915 C-104.0343528 95.57775924 -104.77148665 94.33146908 -105.50814819 93.0848999 C-108.12218524 88.66528309 -110.77681834 84.27164507 -113.4621582 79.89501953 C-115.81638577 75.70682415 -116.03629105 71.6307132 -115.5625 66.9375 C-112.32080202 57.40309417 -102.46285307 52.88722779 -94.24142456 48.1914978 C-91.00343668 46.34127196 -87.7798905 44.46614325 -84.5546875 42.59375 C-83.89147995 42.20946335 -83.2282724 41.8251767 -82.54496765 41.429245 C-75.64028278 37.42016947 -68.81515915 33.28389597 -62 29.125 C-60.82766767 28.41034962 -59.65530461 27.69574964 -58.48291016 26.98120117 C-56.23000219 25.60797836 -53.97726219 24.23448131 -51.72460938 22.86083984 C-45.50649124 19.07869541 -39.26164993 15.341274 -33.015625 11.60546875 C-30.04086058 9.82617645 -27.07255747 8.03679391 -24.109375 6.23828125 C-23.41303955 5.81675781 -22.7167041 5.39523438 -21.99926758 4.9609375 C-20.71120065 4.18076752 -19.42447053 3.39838404 -18.1394043 2.61328125 C-11.90339952 -1.15670361 -7.12324126 -2.12447546 0 0 Z M-19.1171875 42.05859375 C-19.96526474 42.55582191 -19.96526474 42.55582191 -20.83047485 43.06309509 C-22.70220406 44.16251193 -24.56992416 45.26854472 -26.4375 46.375 C-27.73493301 47.13964356 -29.03246024 47.90412726 -30.33007812 48.66845703 C-42.91875946 56.09769079 -55.41353007 63.68182532 -67.88476562 71.30615234 C-70.43735355 72.86125743 -72.9975713 74.4028526 -75.5625 75.9375 C-74.88516994 79.65617485 -73.25354972 82.44762448 -71.34375 85.6875 C-71.0144046 86.24883133 -70.6850592 86.81016266 -70.34573364 87.38850403 C-69.25648151 89.24126439 -68.15970935 91.08944248 -67.0625 92.9375 C-66.29062832 94.24555437 -65.51898484 95.55374343 -64.74755859 96.86206055 C-58.94063736 106.69149153 -53.02809867 116.45538885 -47.08203125 126.20117188 C-41.67289062 135.07268962 -36.35402728 143.99541074 -31.0625 152.9375 C-25.12218925 162.97459232 -19.1341568 172.9793 -13.0625 182.9375 C-6.58229206 193.56576982 -0.20331716 204.25083145 6.13644409 214.96340942 C12.50849506 225.72752125 18.95699096 236.4422071 25.48046875 247.11523438 C26.11726563 248.15873047 26.7540625 249.20222656 27.41015625 250.27734375 C28.0319426 251.25973022 28.65372894 252.2421167 29.2943573 253.25427246 C30.87491115 255.84663555 32.12815519 258.45508625 33.31489563 261.24829102 C36.86265361 269.39104214 36.86265361 269.39104214 43.46848488 274.88597298 C49.384566 276.33570315 55.41326016 275.88933754 61.4453125 275.59765625 C63.38147373 275.56590449 65.3177726 275.54172657 67.25411987 275.52476501 C72.32467078 275.46017912 77.38679608 275.29356235 82.45404053 275.10479736 C87.63486702 274.93013304 92.81707123 274.85309423 98 274.76757812 C108.14951445 274.58584628 118.29280402 274.29617116 128.4375 273.9375 C126.94261191 270.09611213 125.21105001 266.64818789 123.12109375 263.08984375 C122.7931633 262.52992737 122.46523285 261.97001099 122.12736511 261.39312744 C121.04700046 259.55151395 119.96123351 257.71315711 118.875 255.875 C118.10784754 254.57140729 117.34075878 253.26777709 116.57373047 251.96411133 C110.78759812 242.14772392 104.8914602 232.40080085 98.95678711 222.67358398 C93.54785944 213.80206815 88.22897039 204.87949311 82.9375 195.9375 C76.99718925 185.90040768 71.0091568 175.8957 64.9375 165.9375 C58.45423213 155.30421155 52.07272658 144.6138327 45.72949219 133.89648438 C39.51274698 123.39597384 33.21321292 112.94960888 26.86035156 102.53100586 C21.8151147 94.24725642 16.85068849 85.91766689 11.912323 77.56982422 C5.95064095 67.495198 -0.01936824 57.42576326 -6.125 47.4375 C-6.65512695 46.55908447 -7.18525391 45.68066895 -7.73144531 44.77563477 C-8.21323242 43.99373779 -8.69501953 43.21184082 -9.19140625 42.40625 C-9.60463135 41.73013672 -10.01785645 41.05402344 -10.44360352 40.35742188 C-10.81283936 39.88884766 -11.1820752 39.42027344 -11.5625 38.9375 C-14.61589204 38.9375 -16.49936953 40.51786669 -19.1171875 42.05859375 Z " fill="#000000" transform="translate(337.5625,103.0625)"/>
<path d="M0 0 C7.28595086 5.0192106 11.26082406 12.73410631 15.55657959 20.25527954 C17.41646209 23.51004735 19.30145008 26.75025906 21.18359375 29.9921875 C21.56932556 30.65787247 21.95505737 31.32355743 22.35247803 32.00941467 C26.20599905 38.64621903 30.1855467 45.20173395 34.1875 51.75 C40.30430877 61.76874842 46.33449226 71.83533555 52.3125 81.9375 C58.25281263 91.97459549 64.24104171 101.97917688 70.3125 111.9375 C77.23601981 123.29723711 84.05181293 134.71796148 90.82983398 146.16503906 C94.62879585 152.57990016 98.43506505 158.98986959 102.27734375 165.37890625 C102.8036438 166.25418221 102.8036438 166.25418221 103.34057617 167.1471405 C104.98133506 169.87452584 106.62443605 172.6004738 108.27001953 175.32495117 C108.84220215 176.27474854 109.41438477 177.2245459 110.00390625 178.203125 C110.50092041 179.02586914 110.99793457 179.84861328 111.51000977 180.69628906 C114.93478782 186.58934671 115.63543554 191.09622862 114.8125 197.9375 C113 201.4375 113 201.4375 110.8125 203.9375 C110.35875 204.515 109.905 205.0925 109.4375 205.6875 C105.54146741 208.68444815 100.90834022 209.18821154 96.13357544 209.20492554 C95.0262204 209.21345551 93.91886536 209.22198547 92.7779541 209.23077393 C91.57779663 209.22986755 90.37763916 209.22896118 89.14111328 209.22802734 C87.86561615 209.23474457 86.59011902 209.24146179 85.27597046 209.24838257 C81.78827719 209.26599712 78.30068216 209.27073599 74.8129487 209.27201414 C72.63086211 209.27343877 70.44880025 209.27771425 68.26671982 209.28300858 C60.64540784 209.30149316 53.02416568 209.30968108 45.40283203 209.30810547 C38.31249813 209.30690419 31.22246868 209.32800769 24.1322118 209.3595928 C18.03263873 209.38579087 11.9331649 209.39647131 5.83353603 209.39519465 C2.19585187 209.39468609 -1.44156148 209.40031021 -5.0791893 209.42155075 C-9.13877759 209.44460979 -13.19768829 209.43539079 -17.25732422 209.42333984 C-18.45343323 209.43457886 -19.64954224 209.44581787 -20.88189697 209.45739746 C-27.43379111 209.40801386 -32.81054891 208.95444695 -38.1875 204.9375 C-43.85787626 199.00842848 -47.66424136 191.31015306 -51.78662109 184.26171875 C-53.8854929 180.67378819 -56.00028915 177.09525172 -58.11328125 173.515625 C-58.54162262 172.78911743 -58.96996399 172.06260986 -59.4112854 171.31408691 C-63.44277717 164.4846031 -67.55574707 157.70664614 -71.6875 150.9375 C-78.19174844 140.27157031 -84.58862457 129.54570544 -90.94476318 118.79092407 C-97.2941408 108.05258854 -103.77061639 97.3999622 -110.37719727 86.81787109 C-110.99780029 85.81965332 -111.61840332 84.82143555 -112.2578125 83.79296875 C-113.07403076 82.48815552 -113.07403076 82.48815552 -113.90673828 81.15698242 C-115.84179746 77.80364216 -116.38751408 75.00018072 -116.5 71.1875 C-116.55607422 69.95773437 -116.55607422 69.95773437 -116.61328125 68.703125 C-115.80205127 63.43385134 -113.33203224 59.85266668 -109.26611328 56.6015625 C-108.14962402 55.92867188 -107.03313477 55.25578125 -105.8828125 54.5625 C-104.96364548 53.99970337 -104.96364548 53.99970337 -104.02590942 53.42553711 C-102.08942208 52.24591597 -100.13983667 51.09065952 -98.1875 49.9375 C-96.95743325 49.19756891 -95.72793219 48.4566965 -94.49902344 47.71484375 C-91.36172299 45.82907085 -88.21152751 43.96606432 -85.05633545 42.1104126 C-81.56501876 40.05657745 -78.07927343 37.99333465 -74.59375 35.9296875 C-73.88785736 35.51186005 -73.18196472 35.09403259 -72.4546814 34.6635437 C-65.45825552 30.51618355 -58.50687196 26.29625299 -51.5625 22.0625 C-42.9667681 16.82502086 -34.35127704 11.62429834 -25.6875 6.5 C-24.77919434 5.96197754 -23.87088867 5.42395508 -22.93505859 4.86962891 C-21.68329834 4.13172119 -21.68329834 4.13172119 -20.40625 3.37890625 C-19.68373047 2.95295166 -18.96121094 2.52699707 -18.21679688 2.08813477 C-11.98394062 -1.44596672 -6.95710098 -2.31903366 0 0 Z M-21.49609375 42.49609375 C-22.12692368 42.87210724 -22.7577536 43.24812073 -23.40769958 43.63552856 C-25.48408354 44.87555014 -27.55458812 46.12503679 -29.625 47.375 C-31.05783235 48.23409826 -32.49094068 49.09273638 -33.92431641 49.95092773 C-37.61958756 52.16606295 -41.30950597 54.38995409 -44.99786377 56.61657715 C-47.13257286 57.90436458 -49.26885248 59.18950014 -51.40576172 60.47363281 C-54.68005335 62.44148254 -57.95214221 64.41293002 -61.22195435 66.38821411 C-62.44590085 67.12754185 -63.67024408 67.8662132 -64.89498901 68.60421753 C-66.5959005 69.63022747 -68.29411428 70.6607057 -69.9921875 71.69140625 C-70.95108887 72.27220947 -71.90999023 72.8530127 -72.89794922 73.45141602 C-75.26123212 74.87247052 -75.26123212 74.87247052 -77.1875 76.9375 C-68.17086323 92.42967484 -59.06808103 107.85881428 -49.73144531 123.16064453 C-43.27097947 133.75822462 -36.92999118 144.42531081 -30.60595703 155.10473633 C-30.22240555 155.75242477 -29.83885406 156.40011322 -29.44367981 157.06742859 C-28.40957457 158.81432025 -27.37626382 160.56168216 -26.34301758 162.30908203 C-25.98826355 162.86626923 -25.63350952 163.42345642 -25.26800537 163.99752808 C-24.1875 165.9375 -24.1875 165.9375 -23.28424072 168.56326294 C-21.94520298 171.82310254 -20.88310845 173.63666157 -18.1875 175.9375 C-11.65860143 177.38916161 -5.22460677 177.10120964 1.4296875 176.9140625 C3.37163652 176.89540117 5.31363275 176.8811713 7.25564575 176.8711853 C12.35655698 176.83308033 17.45460085 176.73492571 22.55438232 176.62414551 C27.76242276 176.52167496 32.97092864 176.47614003 38.1796875 176.42578125 C48.39188194 176.31867124 58.60195217 176.14810061 68.8125 175.9375 C67.31761191 172.09611213 65.58605001 168.64818789 63.49609375 165.08984375 C63.1681633 164.52992737 62.84023285 163.97001099 62.50236511 163.39312744 C61.42200046 161.55151395 60.33623351 159.71315711 59.25 157.875 C58.48284754 156.57140729 57.71575878 155.26777709 56.94873047 153.96411133 C51.16259812 144.14772392 45.2664602 134.40080085 39.33178711 124.67358398 C33.92285887 115.80206722 28.60402433 106.87946214 23.3125 97.9375 C16.46782851 86.37294289 9.56040841 74.84933817 2.55419922 63.38183594 C-0.38633632 58.56569654 -3.31710325 53.74915857 -6.140625 48.86328125 C-6.77073486 47.7796228 -6.77073486 47.7796228 -7.41357422 46.67407227 C-8.4592413 44.86604144 -9.4920559 43.0505928 -10.5234375 41.234375 C-11.07257813 40.47640625 -11.62171875 39.7184375 -12.1875 38.9375 C-16.03485136 38.9375 -18.30832004 40.56055096 -21.49609375 42.49609375 Z " fill="#000000" transform="translate(227.1875,201.0625)"/>
<path d="M0 0 C6.72665797 3.30217755 10.16535614 9.06311977 13.90625 15.34765625 C14.26735367 15.95186905 14.62845734 16.55608185 15.00050354 17.17860413 C16.1704287 19.13788241 17.33518672 21.10017919 18.5 23.0625 C19.31659196 24.43170693 20.13357117 25.80068297 20.95092773 27.16943359 C22.57048757 29.88255682 24.18826047 32.59673022 25.80419922 35.31201172 C28.09219481 39.15614337 30.38707817 42.9961025 32.68798828 46.83251953 C33.60364153 48.35969253 34.51738283 49.88801353 35.42919922 51.41748047 C38.00189777 55.72134066 40.61379616 59.99779821 43.2696991 64.25067139 C44.83996774 66.76779633 46.40058523 69.29084838 47.96090698 71.81414795 C48.7264634 73.04614286 49.49662778 74.27528842 50.27175903 75.50128174 C59.48276025 90.07521516 59.48276025 90.07521516 58.78515625 98.63671875 C56.8203959 104.21239002 54.12582379 107.91348245 49 111 C45.81551232 112.00395658 42.89021811 112.1323432 39.56158447 112.14717102 C38.45697876 112.15432632 37.35237305 112.16148163 36.21429443 112.16885376 C35.00694641 112.17154266 33.79959839 112.17423157 32.55566406 112.17700195 C31.28045898 112.18357315 30.00525391 112.19014435 28.69140625 112.19691467 C24.46615853 112.21791088 20.24091064 112.22831289 16.015625 112.23828125 C14.55840791 112.24233046 13.10119101 112.24644744 11.6439743 112.25063133 C4.79678009 112.26967325 -2.05040342 112.28390637 -8.89761901 112.2922433 C-16.7897362 112.30201236 -24.68157268 112.32832715 -32.57359099 112.36874419 C-38.68160413 112.39894672 -44.78953697 112.41371608 -50.8976233 112.41702431 C-54.54206201 112.41937008 -58.18620048 112.42826826 -61.83055878 112.45348549 C-65.89991302 112.48118963 -69.96864326 112.47692251 -74.03808594 112.4699707 C-75.83696259 112.48918579 -75.83696259 112.48918579 -77.67218018 112.50878906 C-85.2721742 112.46149658 -91.11736247 111.69531281 -96.85205078 106.23730469 C-97.45509033 105.33866699 -97.45509033 105.33866699 -98.0703125 104.421875 C-98.54629883 103.72513672 -99.02228516 103.02839844 -99.51269531 102.31054688 C-100.00350586 101.54806641 -100.49431641 100.78558594 -101 100 C-101.55526367 99.17048828 -102.11052734 98.34097656 -102.68261719 97.48632812 C-104.46703363 94.7713021 -106.17530652 92.01873147 -107.875 89.25 C-108.46796875 88.33734375 -109.0609375 87.4246875 -109.671875 86.484375 C-113.83122978 79.66073306 -115.17899252 73.9750477 -114 66 C-110.72541088 59.2082596 -104.83716027 55.77233039 -98.49609375 52.05078125 C-97.86945328 51.68119797 -97.24281281 51.31161469 -96.59718323 50.93083191 C-95.24925332 50.13618991 -93.90033964 49.34321473 -92.55053711 48.55175781 C-88.92325986 46.42442571 -85.30367002 44.28408678 -81.68359375 42.14453125 C-80.94781097 41.71000641 -80.2120282 41.27548157 -79.45394897 40.82778931 C-72.60089725 36.77550803 -65.79591394 32.64716913 -59 28.5 C-48.49832969 22.09855302 -37.95114201 15.77758216 -27.375 9.5 C-26.6648877 9.07823486 -25.95477539 8.65646973 -25.22314453 8.22192383 C-23.21965044 7.032393 -21.2154716 5.84402725 -19.2109375 4.65625 C-18.61026459 4.29982422 -18.00959167 3.94339844 -17.39071655 3.57617188 C-11.31076068 -0.02077529 -7.10314743 -0.72337569 0 0 Z M-18.11328125 42.55859375 C-19.063703 43.12261398 -19.063703 43.12261398 -20.0333252 43.69802856 C-22.12781559 44.94212794 -24.22023579 46.18966089 -26.3125 47.4375 C-27.75543438 48.29617298 -29.19838702 49.15481528 -30.64135742 50.01342773 C-40.3907891 55.82064587 -50.11276169 61.67268607 -59.8125 67.5625 C-60.71290512 68.10908768 -60.71290512 68.10908768 -61.63150024 68.66671753 C-68.37498344 72.73985144 -68.37498344 72.73985144 -75 77 C-75 77.66 -75 78.32 -75 79 C-45.96 79 -16.92 79 13 79 C8.3077774 70.78861045 3.62512465 62.59941344 -1.25 54.5 C-1.75273438 53.65953125 -2.25546875 52.8190625 -2.7734375 51.953125 C-6.72529599 45.37221563 -6.72529599 45.37221563 -11 39 C-13.39301357 39 -16.05764806 41.33171157 -18.11328125 42.55859375 Z " fill="#000000" transform="translate(114,298)"/>
</svg>
