<?xml version="1.0" encoding="UTF-8"?>
<svg version="1.1" xmlns="http://www.w3.org/2000/svg" width="225" height="225">
<path d="M0 0 C0.66 0 1.32 0 2 0 C2.61734192 4.93873537 1.51622499 8.0084695 -1.23046875 11.99609375 C-12.38911768 24.63270943 -33.62186894 29.38366715 -49.18920898 33.55981445 C-63.48370459 37.37307329 -63.48370459 37.37307329 -76 45 C-76.95231597 47.12119128 -76.95231597 47.12119128 -77 49 C-72.771566 49.89343535 -69.62053357 49.98281181 -65.41015625 49.0390625 C-64.37826172 48.81476563 -63.34636719 48.59046875 -62.28320312 48.359375 C-61.22037109 48.11703125 -60.15753906 47.8746875 -59.0625 47.625 C-39.83288752 43.36475719 -21.05026588 41.45186459 -2.25 48.75 C-1.1775 49.1625 -0.105 49.575 1 50 C1.66 49.67 2.32 49.34 3 49 C4.560696 48.87160636 6.12377617 48.77131368 7.6875 48.6875 C11.99470542 48.32092933 14.13222781 47.25320983 17.74609375 44.8671875 C21.15918656 43.55400448 24.57788799 43.58221806 28.1875 43.5625 C29.2405835 43.5478772 29.2405835 43.5478772 30.31494141 43.53295898 C35.54676827 43.61871638 35.54676827 43.61871638 37.87475586 45.57714844 C39.94206316 47.26531018 39.94206316 47.26531018 42.65380859 46.8815918 C43.64203613 46.65640869 44.63026367 46.43122559 45.6484375 46.19921875 C46.73640625 45.96396484 47.824375 45.72871094 48.9453125 45.48632812 C50.07710937 45.22271484 51.20890625 44.95910156 52.375 44.6875 C54.61082584 44.186234 56.84778087 43.68997295 59.0859375 43.19921875 C60.0764209 42.97065186 61.0669043 42.74208496 62.08740234 42.5065918 C65.15214421 41.97353737 67.89650845 41.7747865 71 42 C71.66 42.66 72.32 43.32 73 44 C72.6822764 47.91859106 71.50933747 50.97148927 69 54 C66 54.125 66 54.125 63 54 C61.12109566 55.37506099 61.12109566 55.37506099 60 57 C58.68 56.34 57.36 55.68 56 55 C55.67 56.32 55.34 57.64 55 59 C53.35 58.67 51.7 58.34 50 58 C49.34 58.99 48.68 59.98 48 61 C45.03 60.505 45.03 60.505 42 60 C41.67 61.32 41.34 62.64 41 64 C39.68 63.67 38.36 63.34 37 63 C37 63.66 37 64.32 37 65 C41.49656104 67.24828052 45.07872966 67.16682272 50 67 C50 67.99 50 68.98 50 70 C51.175625 69.690625 51.175625 69.690625 52.375 69.375 C53.24125 69.25125 54.1075 69.1275 55 69 C55.66 69.66 56.32 70.32 57 71 C58.32 71 59.64 71 61 71 C61 71.66 61 72.32 61 73 C61.721875 72.938125 62.44375 72.87625 63.1875 72.8125 C66.57598822 73.03839921 68.2228582 74.09985034 71 76 C71.99 76.66 72.98 77.32 74 78 C73.8125 80.3125 73.8125 80.3125 73 83 C65.33890852 89.50032005 51.10639836 87.29157101 41.7890625 86.59765625 C39.73393261 86.42444188 37.6792323 86.24605308 35.625 86.0625 C34.58472656 85.97548828 33.54445312 85.88847656 32.47265625 85.79882812 C24.54024538 85.1149996 24.54024538 85.1149996 20.66015625 84.2890625 C17.13092105 83.90556264 15.04204001 84.88829292 11.8125 86.3125 C0.10147421 91.07340125 -11.51393284 91.4780302 -24 92 C-22.88625 92.433125 -21.7725 92.86625 -20.625 93.3125 C-17 95 -17 95 -15 98 C-15.375 100.6875 -15.375 100.6875 -16 103 C-18.16874252 102.49396008 -19.99967627 102.00016187 -22 101 C-22.33 102.65 -22.66 104.3 -23 106 C-24.98 105.34 -26.96 104.68 -29 104 C-29.33 105.65 -29.66 107.3 -30 109 C-31.65 108.01 -33.3 107.02 -35 106 C-35.33 107.65 -35.66 109.3 -36 111 C-37.8125 110.4375 -37.8125 110.4375 -40 109 C-41.03101947 106.68020619 -42.02936517 104.34570085 -43 102 C-43.70125 101.29875 -44.4025 100.5975 -45.125 99.875 C-47.47121286 97.52878714 -47.92121991 96.30876376 -48 93 C-46.5625 89.6875 -46.5625 89.6875 -45 87 C-45.763125 87.61875 -46.52625 88.2375 -47.3125 88.875 C-52.33722071 92.84803498 -55.50802996 93.28283556 -61.75 93.1875 C-62.53632812 93.18685547 -63.32265625 93.18621094 -64.1328125 93.18554688 C-77.43708211 93.08609635 -77.43708211 93.08609635 -83 88 C-83.66 87.67 -84.32 87.34 -85 87 C-85 84.03 -85 81.06 -85 78 C-85 82.67325155 -86.07242637 84.82359047 -88 89 C-86.2984375 89.2165625 -86.2984375 89.2165625 -84.5625 89.4375 C-81 90 -81 90 -80 91 C-79.92820036 92.51928038 -79.91607993 94.04167482 -79.9375 95.5625 C-79.94652344 96.38878906 -79.95554687 97.21507812 -79.96484375 98.06640625 C-79.97644531 98.70449219 -79.98804687 99.34257812 -80 100 C-83.01031744 100.93423645 -83.86650268 101.04449911 -87 100 C-87.33 101.65 -87.66 103.3 -88 105 C-89.98 104.34 -91.96 103.68 -94 103 C-94.66 104.32 -95.32 105.64 -96 107 C-98.54563057 106.03441599 -99.94635204 105.06131195 -101.75 103 C-103.82933869 98.00958713 -103.74912438 92.47787295 -102.1875 87.3125 C-101.95406664 84.43348855 -102.60732639 83.88360716 -104.3125 81.625 C-104.76238281 81.10164063 -105.21226563 80.57828125 -105.67578125 80.0390625 C-110.46504103 72.6644501 -109.80930423 62.44104311 -109 54 C-107.47054682 46.80461801 -104.03718919 39.44016432 -99 34 C-98.01 34 -97.02 34 -96 34 C-94.68 31.69 -93.36 29.38 -92 27 C-90.02 27 -88.04 27 -86 27 C-85.7525 26.38125 -85.505 25.7625 -85.25 25.125 C-83.75493558 22.58339049 -82.72034313 22.04013119 -80 21 C-79.29875 20.835 -78.5975 20.67 -77.875 20.5 C-75.77320517 20.10722935 -75.77320517 20.10722935 -74 18 C-72.8553125 18.309375 -72.8553125 18.309375 -71.6875 18.625 C-68.80868649 19.33523003 -68.80868649 19.33523003 -66.1875 17.0625 C-65.465625 16.381875 -64.74375 15.70125 -64 15 C-62.68 15.66 -61.36 16.32 -60 17 C-59.4225 16.505 -58.845 16.01 -58.25 15.5 C-56 14 -56 14 -52 14 C-52 14.66 -52 15.32 -52 16 C-50.63875 15.2575 -50.63875 15.2575 -49.25 14.5 C-45.29063017 12.67259854 -42.32430695 13 -38 13 C-37.34 12.34 -36.68 11.68 -36 11 C-33.66666667 11 -31.33333333 11 -29 11 C-28.34 10.34 -27.68 9.68 -27 9 C-25.6078125 9.0309375 -25.6078125 9.0309375 -24.1875 9.0625 C-20.51548795 8.99049976 -19.05400461 7.8984353 -16 6 C-15.01 6.33 -14.02 6.66 -13 7 C-11.32580562 6.0126546 -9.65948148 5.01187895 -8 4 C-6.68 4 -5.36 4 -4 4 C-2.62689293 2.70766393 -1.28965176 1.37562854 0 0 Z M-72 25 C-72.99 25.66 -73.98 26.32 -75 27 C-73.68 27.33 -72.36 27.66 -71 28 C-71.33 27.01 -71.66 26.02 -72 25 Z M-81 29 C-81.66 29.66 -82.32 30.32 -83 31 C-81.68 31.33 -80.36 31.66 -79 32 C-79 31.01 -79 30.02 -79 29 C-79.66 29 -80.32 29 -81 29 Z M-89 34 C-89.33 34.66 -89.66 35.32 -90 36 C-88.68 36.33 -87.36 36.66 -86 37 C-86 36.01 -86 35.02 -86 34 C-86.99 34 -87.98 34 -89 34 Z M-83 39 C-83.33 39.66 -83.66 40.32 -84 41 C-83.01 41.33 -82.02 41.66 -81 42 C-81 41.01 -81 40.02 -81 39 C-81.66 39 -82.32 39 -83 39 Z M-93 40 C-93.66 40.66 -94.32 41.32 -95 42 C-94.01 42.33 -93.02 42.66 -92 43 C-91.67 42.01 -91.34 41.02 -91 40 C-91.66 40 -92.32 40 -93 40 Z M-86 45 C-86.66 45.66 -87.32 46.32 -88 47 C-87.01 47.33 -86.02 47.66 -85 48 C-84.67 47.01 -84.34 46.02 -84 45 C-84.66 45 -85.32 45 -86 45 Z M-95 47 C-95.66 47.66 -96.32 48.32 -97 49 C-96.01 49.33 -95.02 49.66 -94 50 C-93.67 49.01 -93.34 48.02 -93 47 C-93.66 47 -94.32 47 -95 47 Z M23 49 C23 49.99 23 50.98 23 52 C24.65 51.67 26.3 51.34 28 51 C27.34 50.34 26.68 49.68 26 49 C25.01 49 24.02 49 23 49 Z M-45 51 C-45.66 51.66 -46.32 52.32 -47 53 C-46.01 53.33 -45.02 53.66 -44 54 C-43.67 53.01 -43.34 52.02 -43 51 C-43.66 51 -44.32 51 -45 51 Z M-35 50 C-35.99 50.66 -36.98 51.32 -38 52 C-36.68 52 -35.36 52 -34 52 C-34.33 51.34 -34.66 50.68 -35 50 Z M-26 50 C-26.99 50.66 -27.98 51.32 -29 52 C-27.68 52 -26.36 52 -25 52 C-25.33 51.34 -25.66 50.68 -26 50 Z M-20 52 C-20.33 52.66 -20.66 53.32 -21 54 C-19.68 54.33 -18.36 54.66 -17 55 C-17 54.01 -17 53.02 -17 52 C-17.99 52 -18.98 52 -20 52 Z M-88 54 C-86.68 54.33 -85.36 54.66 -84 55 C-83.67 54.01 -83.34 53.02 -83 52 C-85.32357511 51.81509993 -85.32357511 51.81509993 -88 54 Z M-53 52 C-53.99 52.66 -54.98 53.32 -56 54 C-54.68 54.33 -53.36 54.66 -52 55 C-52.33 54.01 -52.66 53.02 -53 52 Z M-97 56 C-95.68 56.33 -94.36 56.66 -93 57 C-92.67 56.01 -92.34 55.02 -92 54 C-94.32357511 53.81509993 -94.32357511 53.81509993 -97 56 Z M-64 55 C-64 55.66 -64 56.32 -64 57 C-63.01 57 -62.02 57 -61 57 C-61 56.34 -61 55.68 -61 55 C-61.99 55 -62.98 55 -64 55 Z M-12 55 C-12 55.66 -12 56.32 -12 57 C-11.01 57.33 -10.02 57.66 -9 58 C-9 57.01 -9 56.02 -9 55 C-9.99 55 -10.98 55 -12 55 Z M-72 57 C-72.66 57.66 -73.32 58.32 -74 59 C-72.68 59.33 -71.36 59.66 -70 60 C-70 59.01 -70 58.02 -70 57 C-70.66 57 -71.32 57 -72 57 Z M-82 58 C-82 58.66 -82 59.32 -82 60 C-81.01 60.33 -80.02 60.66 -79 61 C-79 60.01 -79 59.02 -79 58 C-79.99 58 -80.98 58 -82 58 Z M-39 58 C-39 58.66 -39 59.32 -39 60 C-38.01 60 -37.02 60 -36 60 C-36 59.34 -36 58.68 -36 58 C-36.99 58 -37.98 58 -39 58 Z M-30 58 C-30.33 58.66 -30.66 59.32 -31 60 C-30.01 60.33 -29.02 60.66 -28 61 C-27.67 60.01 -27.34 59.02 -27 58 C-27.99 58 -28.98 58 -30 58 Z M-48 59 C-48 59.66 -48 60.32 -48 61 C-47.01 61 -46.02 61 -45 61 C-45 60.34 -45 59.68 -45 59 C-45.99 59 -46.98 59 -48 59 Z M-22 60 C-21.01 60.99 -20.02 61.98 -19 63 C-19 62.01 -19 61.02 -19 60 C-19.99 60 -20.98 60 -22 60 Z M-90 61 C-90.66 61.66 -91.32 62.32 -92 63 C-90.68 63.33 -89.36 63.66 -88 64 C-88 63.01 -88 62.02 -88 61 C-88.66 61 -89.32 61 -90 61 Z M-55 60 C-55.99 60.66 -56.98 61.32 -58 62 C-56.68 62.33 -55.36 62.66 -54 63 C-54.33 62.01 -54.66 61.02 -55 60 Z M-65 63 C-65.33 63.66 -65.66 64.32 -66 65 C-65.01 65.33 -64.02 65.66 -63 66 C-63 65.01 -63 64.02 -63 63 C-63.66 63 -64.32 63 -65 63 Z M-82 65 C-82.66 65.66 -83.32 66.32 -84 67 C-82.68 67 -81.36 67 -80 67 C-80 66.34 -80 65.68 -80 65 C-80.66 65 -81.32 65 -82 65 Z M-74 65 C-74.66 65.66 -75.32 66.32 -76 67 C-74.68 67.33 -73.36 67.66 -72 68 C-72 67.01 -72 66.02 -72 65 C-72.66 65 -73.32 65 -74 65 Z M-39 65 C-39.99 65.66 -40.98 66.32 -42 67 C-40.68 67.33 -39.36 67.66 -38 68 C-38.33 67.01 -38.66 66.02 -39 65 Z M-32 66 C-32 66.66 -32 67.32 -32 68 C-31.01 68 -30.02 68 -29 68 C-29 67.34 -29 66.68 -29 66 C-29.99 66 -30.98 66 -32 66 Z M-51 68 C-49.68 68.33 -48.36 68.66 -47 69 C-46.67 68.01 -46.34 67.02 -46 66 C-48.32357511 65.81509993 -48.32357511 65.81509993 -51 68 Z M-58 68 C-58.33 68.66 -58.66 69.32 -59 70 C-58.01 70.33 -57.02 70.66 -56 71 C-55.67 70.01 -55.34 69.02 -55 68 C-55.99 68 -56.98 68 -58 68 Z M-68 71 C-68 71.66 -68 72.32 -68 73 C-67.01 73.33 -66.02 73.66 -65 74 C-65 73.01 -65 72.02 -65 71 C-65.99 71 -66.98 71 -68 71 Z " fill="#0F5632" transform="translate(130,57)"/>
<path d="M0 0 C0.99 0.99 0.99 0.99 2 2 C1.6822764 5.91859106 0.50933747 8.97148927 -2 12 C-5 12.125 -5 12.125 -8 12 C-9.87890434 13.37506099 -9.87890434 13.37506099 -11 15 C-12.32 14.34 -13.64 13.68 -15 13 C-15.33 14.32 -15.66 15.64 -16 17 C-17.65 16.67 -19.3 16.34 -21 16 C-21.66 16.99 -22.32 17.98 -23 19 C-24.98 18.67 -26.96 18.34 -29 18 C-29.33 19.32 -29.66 20.64 -30 22 C-31.32 21.67 -32.64 21.34 -34 21 C-34 21.66 -34 22.32 -34 23 C-29.50343896 25.24828052 -25.92127034 25.16682272 -21 25 C-21 25.99 -21 26.98 -21 28 C-20.21625 27.79375 -19.4325 27.5875 -18.625 27.375 C-17.325625 27.189375 -17.325625 27.189375 -16 27 C-15.34 27.66 -14.68 28.32 -14 29 C-12.68 29 -11.36 29 -10 29 C-10 29.66 -10 30.32 -10 31 C-9.278125 30.938125 -8.55625 30.87625 -7.8125 30.8125 C-4.42401178 31.03839921 -2.7771418 32.09985034 0 34 C1.485 34.99 1.485 34.99 3 36 C2.8125 38.3125 2.8125 38.3125 2 41 C-7.60350208 49.148426 -27.25266552 44.83483595 -39 44 C-39 43.34 -39 42.68 -39 42 C-36.525 41.505 -36.525 41.505 -34 41 C-34.33 40.34 -34.66 39.68 -35 39 C-34.34 39 -33.68 39 -33 39 C-33 37.35 -33 35.7 -33 34 C-35.64 34 -38.28 34 -41 34 C-41.33 33.01 -41.66 32.02 -42 31 C-43.84971696 29.94978897 -43.84971696 29.94978897 -46 29 C-48.25 27.5 -48.25 27.5 -50 26 C-50 25.34 -50 24.68 -50 24 C-50.680625 24.515625 -51.36125 25.03125 -52.0625 25.5625 C-55.91161549 27.44610971 -57.92420151 27.207644 -62 26 C-64.73883753 22.73106489 -65 21.3339145 -65 17 C-67.64 17 -70.28 17 -73 17 C-73.33 17.66 -73.66 18.32 -74 19 C-74.66 19.33 -75.32 19.66 -76 20 C-77.05699234 16.82902297 -77.16354821 16.01119261 -76 13 C-72.31161975 8.88788938 -68.44762353 6.72043588 -62.9375 6.375 C-62.08285156 6.34277344 -61.22820312 6.31054688 -60.34765625 6.27734375 C-57.39898663 5.92899842 -55.68555437 4.4726612 -53.25390625 2.8671875 C-49.84081344 1.55400448 -46.42211201 1.58221806 -42.8125 1.5625 C-42.11044434 1.55275146 -41.40838867 1.54300293 -40.68505859 1.53295898 C-35.45323173 1.61871638 -35.45323173 1.61871638 -33.12524414 3.57714844 C-31.05793684 5.26531018 -31.05793684 5.26531018 -28.34619141 4.8815918 C-26.8638501 4.54381714 -26.8638501 4.54381714 -25.3515625 4.19921875 C-23.71960938 3.84633789 -23.71960938 3.84633789 -22.0546875 3.48632812 C-20.92289063 3.22271484 -19.79109375 2.95910156 -18.625 2.6875 C-16.38917416 2.186234 -14.15221913 1.68997295 -11.9140625 1.19921875 C-10.9235791 0.97065186 -9.9330957 0.74208496 -8.91259766 0.5065918 C-5.84785579 -0.02646263 -3.10349155 -0.2252135 0 0 Z M-48 7 C-48 7.99 -48 8.98 -48 10 C-46.35 9.67 -44.7 9.34 -43 9 C-43.66 8.34 -44.32 7.68 -45 7 C-45.99 7 -46.98 7 -48 7 Z " fill="#105832" transform="translate(201,99)"/>
<path d="M0 0 C18.28601253 -0.35699374 18.28601253 -0.35699374 23 2 C23 2.66 23 3.32 23 4 C27.49656104 6.24828052 31.07872966 6.16682272 36 6 C36 6.99 36 7.98 36 9 C36.78375 8.79375 37.5675 8.5875 38.375 8.375 C39.674375 8.189375 39.674375 8.189375 41 8 C41.66 8.66 42.32 9.32 43 10 C44.32 10 45.64 10 47 10 C47 10.66 47 11.32 47 12 C47.721875 11.938125 48.44375 11.87625 49.1875 11.8125 C52.57598822 12.03839921 54.2228582 13.09985034 57 15 C57.99 15.66 58.98 16.32 60 17 C59.8125 19.3125 59.8125 19.3125 59 22 C49.39649792 30.148426 29.74733448 25.83483595 18 25 C18 24.34 18 23.68 18 23 C19.65 22.67 21.3 22.34 23 22 C22.67 21.34 22.34 20.68 22 20 C22.66 20 23.32 20 24 20 C24 18.35 24 16.7 24 15 C22.80375 15.165 21.6075 15.33 20.375 15.5 C17.39048843 15.53704181 16.37581379 15.36519297 14.203125 13.25390625 C13.16732523 11.81558033 12.17285206 10.3463886 11.2265625 8.84765625 C10.12448019 6.85480901 10.12448019 6.85480901 8 6 C8 5.34 8 4.68 8 4 C3.71 4 -0.58 4 -5 4 C-5 3.34 -5 2.68 -5 2 C-3.35 2 -1.7 2 0 2 C0 1.34 0 0.68 0 0 Z " fill="#115432" transform="translate(144,118)"/>
<path d="M0 0 C0.99 0.99 0.99 0.99 2 2 C1.6822764 5.91859106 0.50933747 8.97148927 -2 12 C-5 12.125 -5 12.125 -8 12 C-9.87890434 13.37506099 -9.87890434 13.37506099 -11 15 C-12.32 14.34 -13.64 13.68 -15 13 C-15.33 14.32 -15.66 15.64 -16 17 C-17.65 16.67 -19.3 16.34 -21 16 C-21.66 16.99 -22.32 17.98 -23 19 C-24.98 18.67 -26.96 18.34 -29 18 C-29.33 19.32 -29.66 20.64 -30 22 C-30.76570313 21.85691406 -31.53140625 21.71382812 -32.3203125 21.56640625 C-37.15629959 20.82201333 -42.00365896 20.38304949 -46.875 19.9375 C-47.84953125 19.84662109 -48.8240625 19.75574219 -49.828125 19.66210938 C-52.21857724 19.43946922 -54.60919579 19.21882261 -57 19 C-57 19.66 -57 20.32 -57 21 C-58.65 21 -60.3 21 -62 21 C-62 21.66 -62 22.32 -62 23 C-57.71 23 -53.42 23 -49 23 C-49 23.66 -49 24.32 -49 25 C-48.38125 25.2475 -47.7625 25.495 -47.125 25.75 C-44.64931313 27.20628639 -44.04874998 28.37812506 -43 31 C-44.17219543 30.21654285 -45.33763668 29.42297164 -46.5 28.625 C-47.1496875 28.18414062 -47.799375 27.74328125 -48.46875 27.2890625 C-48.9740625 26.86367187 -49.479375 26.43828125 -50 26 C-50 25.34 -50 24.68 -50 24 C-50.680625 24.515625 -51.36125 25.03125 -52.0625 25.5625 C-55.91161549 27.44610971 -57.92420151 27.207644 -62 26 C-63.92171842 23.58235424 -65 22.11532786 -65 19 C-62.41391846 17.70695923 -60.44005622 17.82322497 -57.546875 17.75390625 C-56.45246094 17.72103516 -55.35804688 17.68816406 -54.23046875 17.65429688 C-51.9258707 17.59351342 -49.62117903 17.53617369 -47.31640625 17.48242188 C-45.66705078 17.43118164 -45.66705078 17.43118164 -43.984375 17.37890625 C-42.47955566 17.34132202 -42.47955566 17.34132202 -40.94433594 17.30297852 C-37.73390727 16.97261848 -35.01737276 16.12183653 -32 15 C-32 13.02 -32 11.04 -32 9 C-30.02 9.33 -28.04 9.66 -26 10 C-26 9.01 -26 8.02 -26 7 C-26.99 7 -27.98 7 -29 7 C-29 6.34 -29 5.68 -29 5 C-25.29394995 4.15628795 -21.58483619 3.3268912 -17.875 2.5 C-16.82828125 2.26152344 -15.7815625 2.02304688 -14.703125 1.77734375 C-13.68476563 1.55175781 -12.66640625 1.32617188 -11.6171875 1.09375 C-10.68503418 0.88427734 -9.75288086 0.67480469 -8.79248047 0.45898438 C-5.7791761 -0.03629559 -3.04762029 -0.21243753 0 0 Z " fill="#0F5531" transform="translate(201,99)"/>
<path d="M0 0 C18.28601253 -0.35699374 18.28601253 -0.35699374 23 2 C23.12375 3.175625 23.12375 3.175625 23.25 4.375 C23.77137156 7.338545 23.77137156 7.338545 27.0625 8.8125 C28.031875 9.204375 29.00125 9.59625 30 10 C30 10.66 30 11.32 30 12 C31.27617187 11.94585937 31.27617187 11.94585937 32.578125 11.890625 C36.25288199 12.00808299 39.23268402 12.69642609 42.75 13.75 C43.87921875 14.07484375 45.0084375 14.3996875 46.171875 14.734375 C49 16 49 16 50.390625 18.140625 C50.69226563 19.06101563 50.69226563 19.06101563 51 20 C47 20 47 20 44.9375 19.4375 C42.79995606 18.77922612 42.79995606 18.77922612 40 20 C39.34 18.68 38.68 17.36 38 16 C37.01 16.66 36.02 17.32 35 18 C34.01 18 33.02 18 32 18 C32 17.01 32 16.02 32 15 C31.05125 15.20625 30.1025 15.4125 29.125 15.625 C28.09375 15.74875 27.0625 15.8725 26 16 C25.34 15.34 24.68 14.68 24 14 C22.906875 14.061875 21.81375 14.12375 20.6875 14.1875 C17 14 17 14 14.3125 11.6875 C13.549375 10.800625 12.78625 9.91375 12 9 C11.236875 8.443125 10.47375 7.88625 9.6875 7.3125 C9.130625 6.879375 8.57375 6.44625 8 6 C8 5.34 8 4.68 8 4 C3.71 4 -0.58 4 -5 4 C-5 3.34 -5 2.68 -5 2 C-3.35 2 -1.7 2 0 2 C0 1.34 0 0.68 0 0 Z " fill="#B33638" transform="translate(144,118)"/>
<path d="M0 0 C-0.66 0.33 -1.32 0.66 -2 1 C-2.66 0.67 -3.32 0.34 -4 0 C-3.505 4.455 -3.505 4.455 -3 9 C-3.66 9 -4.32 9 -5 9 C-5 9.66 -5 10.32 -5 11 C-6.98 10.67 -8.96 10.34 -11 10 C-11.99 11.65 -12.98 13.3 -14 15 C-16.4375 14.625 -16.4375 14.625 -19 14 C-19.33 13.34 -19.66 12.68 -20 12 C-20.5775 12.350625 -21.155 12.70125 -21.75 13.0625 C-24 14 -24 14 -26.1875 13.75 C-28 13 -28 13 -29 11 C-28.67 10.01 -28.34 9.02 -28 8 C-26.02 7.67 -24.04 7.34 -22 7 C-21.67 7.99 -21.34 8.98 -21 10 C-18.36 9.01 -15.72 8.02 -13 7 C-13 5.68 -13 4.36 -13 3 C-14.65 3.33 -16.3 3.66 -18 4 C-18 3.01 -18 2.02 -18 1 C-15.03 1.495 -15.03 1.495 -12 2 C-12 1.34 -12 0.68 -12 0 C-14.96511922 -1.70426059 -17.03264078 -2.2360842 -20.44140625 -2.16015625 C-21.27220703 -2.14919922 -22.10300781 -2.13824219 -22.95898438 -2.12695312 C-23.81814453 -2.10568359 -24.67730469 -2.08441406 -25.5625 -2.0625 C-27.27205018 -2.02802811 -28.98169486 -1.99789674 -30.69140625 -1.97265625 C-31.44623291 -1.95468994 -32.20105957 -1.93672363 -32.97875977 -1.91821289 C-35 -2 -35 -2 -38 -3 C-37.67 -1.68 -37.34 -0.36 -37 1 C-35.02 0.67 -33.04 0.34 -31 0 C-31 1 -31 2 -31 3 C-30.34 3 -29.68 3 -29 3 C-29.33 3.99 -29.66 4.98 -30 6 C-30.94875 5.67 -31.8975 5.34 -32.875 5 C-35.77062452 3.89840809 -35.77062452 3.89840809 -38 4 C-38.33 4.99 -38.66 5.98 -39 7 C-41.475 6.01 -41.475 6.01 -44 5 C-43.360625 4.87625 -42.72125 4.7525 -42.0625 4.625 C-41.381875 4.41875 -40.70125 4.2125 -40 4 C-39.67 3.34 -39.34 2.68 -39 2 C-40.32 2.33 -41.64 2.66 -43 3 C-43.33 2.34 -43.66 1.68 -44 1 C-42.68 0.34 -41.36 -0.32 -40 -1 C-42.64 -1 -45.28 -1 -48 -1 C-48 -1.66 -48 -2.32 -48 -3 C-33.9897938 -6.13202214 -12.60110424 -8.40073616 0 0 Z M-8 6 C-8 6.66 -8 7.32 -8 8 C-7.01 8.33 -6.02 8.66 -5 9 C-5 8.01 -5 7.02 -5 6 C-5.99 6 -6.98 6 -8 6 Z M-26 9 C-26.33 9.66 -26.66 10.32 -27 11 C-26.01 11.33 -25.02 11.66 -24 12 C-23.67 11.01 -23.34 10.02 -23 9 C-23.99 9 -24.98 9 -26 9 Z M-18 11 C-17.01 11.99 -16.02 12.98 -15 14 C-15 13.01 -15 12.02 -15 11 C-15.99 11 -16.98 11 -18 11 Z " fill="#114D2D" transform="translate(126,106)"/>
<path d="M0 0 C3.465 1.485 3.465 1.485 7 3 C7 3.66 7 4.32 7 5 C7.85078125 4.96390625 8.7015625 4.9278125 9.578125 4.890625 C13.25288199 5.00808299 16.23268402 5.69642609 19.75 6.75 C20.87921875 7.07484375 22.0084375 7.3996875 23.171875 7.734375 C26 9 26 9 27.390625 11.140625 C27.69226563 12.06101563 27.69226563 12.06101563 28 13 C24 13 24 13 21.9375 12.4375 C19.79995606 11.77922612 19.79995606 11.77922612 17 13 C16.34 11.68 15.68 10.36 15 9 C14.01 9.66 13.02 10.32 12 11 C11.01 11 10.02 11 9 11 C9 10.01 9 9.02 9 8 C8.05125 8.20625 7.1025 8.4125 6.125 8.625 C5.09375 8.74875 4.0625 8.8725 3 9 C2.34 8.34 1.68 7.68 1 7 C-0.093125 7.061875 -1.18625 7.12375 -2.3125 7.1875 C-6 7 -6 7 -8.9375 4.5 C-9.618125 3.675 -10.29875 2.85 -11 2 C-10.34 1.67 -9.68 1.34 -9 1 C-8.34 1.33 -7.68 1.66 -7 2 C-7 2.66 -7 3.32 -7 4 C-4.36 4 -1.72 4 1 4 C0.67 2.68 0.34 1.36 0 0 Z " fill="#BE353A" transform="translate(167,125)"/>
<path d="M0 0 C0.99 0.495 0.99 0.495 2 1 C5.86061033 2.28687011 8.94150283 2.13757618 13 2 C13 2.99 13 3.98 13 5 C13.78375 4.79375 14.5675 4.5875 15.375 4.375 C16.674375 4.189375 16.674375 4.189375 18 4 C18.66 4.66 19.32 5.32 20 6 C21.32 6 22.64 6 24 6 C24 6.66 24 7.32 24 8 C25.0828125 7.87625 25.0828125 7.87625 26.1875 7.75 C29.83548794 8.07426559 31.34568298 9.57319587 34 12 C32.68 12 31.36 12 30 12 C30 13.65 30 15.3 30 17 C28.35 17.33 26.7 17.66 25 18 C25.66 16.68 26.32 15.36 27 14 C20.5944041 10.87168572 13.94970825 9.47354716 7 8 C7 7.34 7 6.68 7 6 C6.030625 5.7525 5.06125 5.505 4.0625 5.25 C3.051875 4.8375 2.04125 4.425 1 4 C0.125 1.875 0.125 1.875 0 0 Z " fill="#1B502F" transform="translate(167,122)"/>
<path d="M0 0 C0.99457718 0.00212242 0.99457718 0.00212242 2.00924683 0.00428772 C4.12860613 0.00988871 6.24786009 0.02244125 8.3671875 0.03515625 C9.80338389 0.04017113 11.23958194 0.04473406 12.67578125 0.04882812 C16.19795095 0.05985843 19.72005895 0.07712366 23.2421875 0.09765625 C23.7371875 1.58265625 23.7371875 1.58265625 24.2421875 3.09765625 C15.9921875 2.43765625 7.7421875 1.77765625 -0.7578125 1.09765625 C-0.7578125 1.75765625 -0.7578125 2.41765625 -0.7578125 3.09765625 C-2.4078125 3.09765625 -4.0578125 3.09765625 -5.7578125 3.09765625 C-5.7578125 3.75765625 -5.7578125 4.41765625 -5.7578125 5.09765625 C-1.4678125 5.09765625 2.8221875 5.09765625 7.2421875 5.09765625 C7.2421875 5.75765625 7.2421875 6.41765625 7.2421875 7.09765625 C8.1703125 7.46890625 8.1703125 7.46890625 9.1171875 7.84765625 C11.59287437 9.30394264 12.19343752 10.47578131 13.2421875 13.09765625 C12.06999207 12.3141991 10.90455082 11.52062789 9.7421875 10.72265625 C9.0925 10.28179687 8.4428125 9.8409375 7.7734375 9.38671875 C7.268125 8.96132812 6.7628125 8.5359375 6.2421875 8.09765625 C6.2421875 7.43765625 6.2421875 6.77765625 6.2421875 6.09765625 C5.5615625 6.61328125 4.8809375 7.12890625 4.1796875 7.66015625 C0.33057201 9.54376596 -1.68201401 9.30530025 -5.7578125 8.09765625 C-7.67953092 5.68001049 -8.7578125 4.21298411 -8.7578125 1.09765625 C-5.8358356 -0.3633322 -3.25887775 -0.01369276 0 0 Z " fill="#5B4732" transform="translate(144.7578125,116.90234375)"/>
<path d="M0 0 C4.48123828 0.71292427 8.69742362 1.56580787 13 3 C14.32 3 15.64 3 17 3 C17 3.99 17 4.98 17 6 C18.98 5.34 20.96 4.68 23 4 C23.66 5.32 24.32 6.64 25 8 C22.03 8 19.06 8 16 8 C15.67 8.99 15.34 9.98 15 11 C15.66 11.66 16.32 12.32 17 13 C12.38 13 7.76 13 3 13 C3 12.34 3 11.68 3 11 C4.65 10.67 6.3 10.34 8 10 C7.67 9.34 7.34 8.68 7 8 C7.66 8 8.32 8 9 8 C9 6.35 9 4.7 9 3 C6.36 3 3.72 3 1 3 C0.67 2.01 0.34 1.02 0 0 Z " fill="#214F2D" transform="translate(159,130)"/>
<path d="M0 0 C-1.32 0.33 -2.64 0.66 -4 1 C-4 1.66 -4 2.32 -4 3 C-3.401875 3.103125 -2.80375 3.20625 -2.1875 3.3125 C0.30682867 4.09643187 1.18521597 5.18521597 3 7 C3.99 7 4.98 7 6 7 C6 7.66 6 8.32 6 9 C5.01 9 4.02 9 3 9 C3 9.66 3 10.32 3 11 C3.66 11 4.32 11 5 11 C4.67 11.66 4.34 12.32 4 13 C3.34 12.67 2.68 12.34 2 12 C2 11.01 2 10.02 2 9 C1.34 9 0.68 9 0 9 C-0.66 10.32 -1.32 11.64 -2 13 C-3.98 12.34 -5.96 11.68 -8 11 C-7.01 10.67 -6.02 10.34 -5 10 C-4.34 10.33 -3.68 10.66 -3 11 C-3.33 10.34 -3.66 9.68 -4 9 C-6.12576782 8.53348793 -6.12576782 8.53348793 -8.5625 8.375 C-9.38878906 8.30023438 -10.21507813 8.22546875 -11.06640625 8.1484375 C-11.70449219 8.09945312 -12.34257813 8.05046875 -13 8 C-12.67 6.68 -12.34 5.36 -12 4 C-11.01 4 -10.02 4 -9 4 C-8.67 3.01 -8.34 2.02 -8 1 C-8 1.99 -8 2.98 -8 4 C-7.34 3.67 -6.68 3.34 -6 3 C-6 2.01 -6 1.02 -6 0 C-3 -1 -3 -1 0 0 Z " fill="#0D4D2D" transform="translate(95,114)"/>
<path d="M0 0 C1.0530835 -0.02719116 1.0530835 -0.02719116 2.12744141 -0.05493164 C5.70652915 -0.01339401 7.49268665 0.23892788 10.30078125 2.53125 C10.79964844 3.1809375 11.29851562 3.830625 11.8125 4.5 C10.8225 4.83 9.8325 5.16 8.8125 5.5 C8.8125 6.16 8.8125 6.82 8.8125 7.5 C6.3375 7.005 6.3375 7.005 3.8125 6.5 C3.8125 5.51 3.8125 4.52 3.8125 3.5 C2.4925 3.83 1.1725 4.16 -0.1875 4.5 C0.1425 5.16 0.4725 5.82 0.8125 6.5 C-2.1575 6.005 -2.1575 6.005 -5.1875 5.5 C-5.1875 4.84 -5.1875 4.18 -5.1875 3.5 C-8.49310718 3.88437293 -10.79753966 4.25002542 -13.625 6.0625 C-16.95735967 7.9318725 -19.41544976 7.63716546 -23.1875 7.5 C-25.49786915 7.92854995 -25.49786915 7.92854995 -27.1875 8.5 C-27.1875 7.84 -27.1875 7.18 -27.1875 6.5 C-24.82036331 5.31643165 -23.13702302 5.3288412 -20.5 5.1875 C-16.73287078 4.86689326 -15.31169053 4.58196575 -12.0625 2.4375 C-8.32505512 -0.02110832 -4.33859742 0.05078626 0 0 Z " fill="#13452E" transform="translate(158.1875,100.5)"/>
<path d="M0 0 C0.5775 0.37125 1.155 0.7425 1.75 1.125 C4 2.29166667 4 2.29166667 6.25 1.125 C6.8275 0.75375 7.405 0.3825 8 0 C7.1875 1.9375 7.1875 1.9375 6 4 C5.01 4.33 4.02 4.66 3 5 C2.34 4.67 1.68 4.34 1 4 C1 3.34 1 2.68 1 2 C-0.12894876 2.93274109 -1.25300876 3.87140122 -2.375 4.8125 C-3.00148438 5.33457031 -3.62796875 5.85664062 -4.2734375 6.39453125 C-6.2221048 8.08225739 -6.2221048 8.08225739 -8 11 C-9.32 11 -10.64 11 -12 11 C-12 10.34 -12 9.68 -12 9 C-10.68 9 -9.36 9 -8 9 C-8 7.68 -8 6.36 -8 5 C-8.66 5.61875 -9.32 6.2375 -10 6.875 C-13.70411034 9.49874482 -16.57924515 10.10086342 -21 11 C-20.1875 9.0625 -20.1875 9.0625 -19 7 C-16 6 -16 6 -13.9375 5.5625 C-11.78505328 5.10633245 -11.78505328 5.10633245 -10 3 C-9.236875 3.20625 -8.47375 3.4125 -7.6875 3.625 C-4.80868649 4.33523003 -4.80868649 4.33523003 -2.1875 2.0625 C-1.1046875 1.0415625 -1.1046875 1.0415625 0 0 Z " fill="#14492D" transform="translate(66,72)"/>
<path d="M0 0 C3.3 0 6.6 0 10 0 C13 5.75 13 5.75 13 8 C10.36 8 7.72 8 5 8 C5 7.34 5 6.68 5 6 C3.68 5.67 2.36 5.34 1 5 C0.67 3.35 0.34 1.7 0 0 Z " fill="#E32834" transform="translate(155,121)"/>
<path d="M0 0 C6.67491831 -0.45510807 12.59374557 1.2327574 19 3 C19 2.34 19 1.68 19 1 C22.35595828 1.59927826 24.37801226 2.84622436 27 5 C25.68 5 24.36 5 23 5 C23 6.65 23 8.3 23 10 C21.35 10.33 19.7 10.66 18 11 C18.66 9.68 19.32 8.36 20 7 C13.5944041 3.87168572 6.94970825 2.47354716 0 1 C0 0.67 0 0.34 0 0 Z " fill="#354A2E" transform="translate(174,129)"/>
<path d="M0 0 C1.98 0.99 1.98 0.99 4 2 C4 3.32 4 4.64 4 6 C4.99 6 5.98 6 7 6 C7.33 5.01 7.66 4.02 8 3 C9.98 3 11.96 3 14 3 C13.67 4.65 13.34 6.3 13 8 C11.35 7.01 9.7 6.02 8 5 C7.67 6.65 7.34 8.3 7 10 C5.1875 9.5 5.1875 9.5 3 8 C1.73847391 5.4136076 0.84356955 2.74799171 0 0 Z " fill="#17472F" transform="translate(87,158)"/>
<path d="M0 0 C0.66 0.33 1.32 0.66 2 1 C-1.01387664 4.11822675 -3.16993826 5.27982833 -7.42578125 5.390625 C-9.05514818 5.36423849 -10.68429016 5.31682471 -12.3125 5.25 C-13.14845703 5.23195312 -13.98441406 5.21390625 -14.84570312 5.1953125 C-16.89763228 5.14841126 -18.94896756 5.07667411 -21 5 C-21.33 4.34 -21.66 3.68 -22 3 C-20.74703125 2.95101562 -19.4940625 2.90203125 -18.203125 2.8515625 C-16.55206179 2.77651417 -14.90102119 2.70096723 -13.25 2.625 C-12.425 2.5940625 -11.6 2.563125 -10.75 2.53125 C-9.95078125 2.49257812 -9.1515625 2.45390625 -8.328125 2.4140625 C-7.22839355 2.36693115 -7.22839355 2.36693115 -6.10644531 2.31884766 C-3.92021232 2.10062659 -3.92021232 2.10062659 -1.85449219 0.91162109 C-1.24250977 0.61078613 -0.63052734 0.30995117 0 0 Z " fill="#11462E" transform="translate(80,145)"/>
<path d="M0 0 C0 0.66 0 1.32 0 2 C1.65 1.67 3.3 1.34 5 1 C5.33 1.66 5.66 2.32 6 3 C4.68 3.99 3.36 4.98 2 6 C1.67 5.34 1.34 4.68 1 4 C0.4225 4.350625 -0.155 4.70125 -0.75 5.0625 C-3 6 -3 6 -5.1875 5.75 C-7 5 -7 5 -8 3 C-7.67 2.01 -7.34 1.02 -7 0 C-3.86650268 -1.04449911 -3.01031744 -0.93423645 0 0 Z M-5 1 C-5.33 1.66 -5.66 2.32 -6 3 C-5.01 3.33 -4.02 3.66 -3 4 C-2.67 3.01 -2.34 2.02 -2 1 C-2.99 1 -3.98 1 -5 1 Z " fill="#0F4A2C" transform="translate(105,114)"/>
<path d="M0 0 C-1.36983503 3.16115776 -1.9890638 3.9927092 -5 6 C-5.67801034 8.90073181 -5.67801034 8.90073181 -6 12 C-6.31674575 13.33737094 -6.64270064 14.67288808 -7 16 C-8.1875 13.375 -8.1875 13.375 -9 10 C-7.625 6.625 -7.625 6.625 -6 4 C-6.66 4 -7.32 4 -8 4 C-7.1875 2.0625 -7.1875 2.0625 -6 0 C-3 -1 -3 -1 0 0 Z " fill="#11472C" transform="translate(91,140)"/>
<path d="M0 0 C2.375 -0.125 2.375 -0.125 5 0 C5.66 0.66 6.32 1.32 7 2 C6.67800066 5.97132519 5.16420003 8.70665213 3 12 C0.5625 11.625 0.5625 11.625 -2 11 C-2.33 10.34 -2.66 9.68 -3 9 C-1.68 9 -0.36 9 1 9 C0.67 7.68 0.34 6.36 0 5 C1.65 5 3.3 5 5 5 C4.33131686 1.88667752 4.33131686 1.88667752 1.9375 0.8125 C1.298125 0.544375 0.65875 0.27625 0 0 Z " fill="#14492E" transform="translate(196,99)"/>
<path d="M0 0 C0.99 0 1.98 0 3 0 C3.66 0.66 4.32 1.32 5 2 C6.32 2 7.64 2 9 2 C9 2.66 9 3.32 9 4 C9.66 4 10.32 4 11 4 C11 4.66 11 5.32 11 6 C9.58249437 5.88490339 8.16598831 5.75746342 6.75 5.625 C5.96109375 5.55539063 5.1721875 5.48578125 4.359375 5.4140625 C1.914123 4.98492887 0.15163097 4.21399362 -2 3 C-1.34 2.67 -0.68 2.34 0 2 C0 1.34 0 0.68 0 0 Z " fill="#195534" transform="translate(182,126)"/>
<path d="M0 0 C0 0.66 0 1.32 0 2 C0.61875 2.2475 1.2375 2.495 1.875 2.75 C4.35068687 4.20628639 4.95125002 5.37812506 6 8 C4.82780457 7.21654285 3.66236332 6.42297164 2.5 5.625 C1.8503125 5.18414062 1.200625 4.74328125 0.53125 4.2890625 C0.0259375 3.86367187 -0.479375 3.43828125 -1 3 C-1 2.34 -1 1.68 -1 1 C-1.680625 1.515625 -2.36125 2.03125 -3.0625 2.5625 C-6.83332509 4.40779739 -8.9849265 4.00376838 -13 3 C-13.33 2.34 -13.66 1.68 -14 1 C-9.27616037 0.34843591 -4.78025483 -0.11950637 0 0 Z " fill="#2C4B2C" transform="translate(152,122)"/>
<path d="M0 0 C5.42693662 0.48239437 5.42693662 0.48239437 7.9375 2.75 C9.27773867 5.58815249 8.90110078 7.05094291 8 10 C6.68 9.67 5.36 9.34 4 9 C4.33 8.34 4.66 7.68 5 7 C5.66 7.33 6.32 7.66 7 8 C7 7.01 7 6.02 7 5 C5.68 5.33 4.36 5.66 3 6 C2.01 4.02 1.02 2.04 0 0 Z " fill="#11482A" transform="translate(106,150)"/>
<path d="M0 0 C2.875 0.25 2.875 0.25 6 1 C7.375 3.0625 7.375 3.0625 8 5 C4 5 4 5 1.9375 4.4375 C-0.20004394 3.77922612 -0.20004394 3.77922612 -3 5 C-3.66 3.68 -4.32 2.36 -5 1 C-3.35 1 -1.7 1 0 1 C0 0.67 0 0.34 0 0 Z " fill="#AC3E3E" transform="translate(187,133)"/>
<path d="M0 0 C3.3 0 6.6 0 10 0 C10 0.99 10 1.98 10 3 C5.38 3 0.76 3 -4 3 C-2.68 2.67 -1.36 2.34 0 2 C0 1.34 0 0.68 0 0 Z " fill="#D32F37" transform="translate(144,118)"/>
<path d="M0 0 C5.28 0 10.56 0 16 0 C16.33 0.99 16.66 1.98 17 3 C14.54066009 2.88630789 12.0832091 2.75957349 9.625 2.625 C8.92632812 2.5940625 8.22765625 2.563125 7.5078125 2.53125 C2.2265625 2.2265625 2.2265625 2.2265625 0 0 Z " fill="#354228" transform="translate(152,117)"/>
<path d="M0 0 C1.8871875 0.0309375 1.8871875 0.0309375 3.8125 0.0625 C3.8125 1.0525 3.8125 2.0425 3.8125 3.0625 C4.8025 3.0625 5.7925 3.0625 6.8125 3.0625 C6.8125 3.7225 6.8125 4.3825 6.8125 5.0625 C5.1625 4.7325 3.5125 4.4025 1.8125 4.0625 C1.8125 3.0725 1.8125 2.0825 1.8125 1.0625 C0.4925 1.3925 -0.8275 1.7225 -2.1875 2.0625 C-1.8575 2.7225 -1.5275 3.3825 -1.1875 4.0625 C-4.1575 3.5675 -4.1575 3.5675 -7.1875 3.0625 C-7.1875 2.4025 -7.1875 1.7425 -7.1875 1.0625 C-4.43671116 0.14557039 -2.82801087 -0.04636083 0 0 Z " fill="#084E28" transform="translate(160.1875,102.9375)"/>
<path d="M0 0 C2.31 0.33 4.62 0.66 7 1 C6.67 1.99 6.34 2.98 6 4 C3.525 3.01 3.525 3.01 1 2 C0.67 3.32 0.34 4.64 0 6 C-1.32 5.67 -2.64 5.34 -4 5 C-3.01 4.67 -2.02 4.34 -1 4 C-0.26676204 1.98491642 -0.26676204 1.98491642 0 0 Z " fill="#16472E" transform="translate(185,110)"/>
<path d="M0 0 C0 0.66 0 1.32 0 2 C-3.96 2 -7.92 2 -12 2 C-12 1.34 -12 0.68 -12 0 C-7.66726186 -0.92844389 -4.33273814 -0.92844389 0 0 Z " fill="#094723" transform="translate(190,142)"/>
<path d="M0 0 C0.66 0.66 1.32 1.32 2 2 C-5.05106049 6.42419482 -5.05106049 6.42419482 -10 6 C-10.99 6.495 -10.99 6.495 -12 7 C-11.34 5.68 -10.68 4.36 -10 3 C-9.0925 3.061875 -8.185 3.12375 -7.25 3.1875 C-3.71017358 2.98327924 -2.55068845 2.35448165 0 0 Z " fill="#184831" transform="translate(113,63)"/>
<path d="M0 0 C0.66 0 1.32 0 2 0 C1.67 1.65 1.34 3.3 1 5 C-0.98 4.34 -2.96 3.68 -5 3 C-5.33 3.99 -5.66 4.98 -6 6 C-6.33 4.68 -6.66 3.36 -7 2 C-3.98968256 1.06576355 -3.13349732 0.95550089 0 2 C0 1.34 0 0.68 0 0 Z " fill="#15482F" transform="translate(41,157)"/>
<path d="M0 0 C1.32 0.33 2.64 0.66 4 1 C4 1.66 4 2.32 4 3 C6.64 3.33 9.28 3.66 12 4 C9 6 9 6 6.5625 5.875 C3.50582244 4.83125644 2.06574168 3.44828643 0 1 C0 0.67 0 0.34 0 0 Z " fill="#A73C3B" transform="translate(156,126)"/>
<path d="M0 0 C0.99 0.99 1.98 1.98 3 3 C2.34 3 1.68 3 1 3 C0.87625 3.639375 0.7525 4.27875 0.625 4.9375 C0.41875 5.618125 0.2125 6.29875 0 7 C-0.99 7.495 -0.99 7.495 -2 8 C-2.66 7.67 -3.32 7.34 -4 7 C-3.67 6.01 -3.34 5.02 -3 4 C-2.34 4 -1.68 4 -1 4 C-0.67 2.68 -0.34 1.36 0 0 Z " fill="#105934" transform="translate(69,120)"/>
<path d="M0 0 C3 0.25 3 0.25 5 2.25 C4.67 2.58 4.34 2.91 4 3.25 C2.47480724 3.16062197 0.95318071 3.00462854 -0.5625 2.8125 C-1.80193359 2.65974609 -1.80193359 2.65974609 -3.06640625 2.50390625 C-3.70449219 2.42011719 -4.34257812 2.33632812 -5 2.25 C-3 0.25 -3 0.25 0 0 Z " fill="#D0313A" transform="translate(177,129.75)"/>
<path d="M0 0 C2.97 0.99 5.94 1.98 9 3 C5 5 5 5 2.25 4.125 C1.5075 3.75375 0.765 3.3825 0 3 C0 2.01 0 1.02 0 0 Z " fill="#37462F" transform="translate(167,122)"/>
<path d="M0 0 C-2.93720508 1.52299523 -5.9168649 2.80100302 -9 4 C-9.66 3.34 -10.32 2.68 -11 2 C-7.36576791 -0.32590854 -4.22911669 -0.16265833 0 0 Z " fill="#0E4A2B" transform="translate(71,106)"/>
<path d="M0 0 C0.86625 0.3403125 0.86625 0.3403125 1.75 0.6875 C-0.87198774 2.84127564 -2.89404172 4.08822174 -6.25 4.6875 C-6.25 4.0275 -6.25 3.3675 -6.25 2.6875 C-3.02697842 -0.42041367 -3.02697842 -0.42041367 0 0 Z " fill="#134C2F" transform="translate(64.25,93.3125)"/>
<path d="M0 0 C0.66 0 1.32 0 2 0 C2 1.98 2 3.96 2 6 C1.01 6.495 1.01 6.495 0 7 C-0.66 6.34 -1.32 5.68 -2 5 C-1.46428571 1.46428571 -1.46428571 1.46428571 0 0 Z " fill="#1D462F" transform="translate(130,57)"/>
<path d="M0 0 C0.99 0 1.98 0 3 0 C2.67 1.65 2.34 3.3 2 5 C0.02 4.34 -1.96 3.68 -4 3 C-2.68 2.34 -1.36 1.68 0 1 C0 0.67 0 0.34 0 0 Z " fill="#174530" transform="translate(105,158)"/>
<path d="M0 0 C1.875 0.8125 1.875 0.8125 2.875 2.8125 C0.235 2.8125 -2.405 2.8125 -5.125 2.8125 C-2.68543956 -0.23695055 -2.68543956 -0.23695055 0 0 Z " fill="#374624" transform="translate(189.125,136.1875)"/>
<path d="" fill="#FFFFFF" transform="translate(0,0)"/>
<path d="" fill="#FFFFFF" transform="translate(0,0)"/>
<path d="" fill="#FFFFFF" transform="translate(0,0)"/>
<path d="" fill="#FFFFFF" transform="translate(0,0)"/>
<path d="" fill="#FFFFFF" transform="translate(0,0)"/>
<path d="" fill="#FFFFFF" transform="translate(0,0)"/>
<path d="" fill="#FFFFFF" transform="translate(0,0)"/>
<path d="" fill="#FFFFFF" transform="translate(0,0)"/>
<path d="" fill="#FFFFFF" transform="translate(0,0)"/>
<path d="" fill="#FFFFFF" transform="translate(0,0)"/>
<path d="" fill="#FFFFFF" transform="translate(0,0)"/>
<path d="" fill="#FFFFFF" transform="translate(0,0)"/>
<path d="" fill="#FFFFFF" transform="translate(0,0)"/>
<path d="" fill="#FFFFFF" transform="translate(0,0)"/>
<path d="" fill="#FFFFFF" transform="translate(0,0)"/>
<path d="" fill="#FFFFFF" transform="translate(0,0)"/>
<path d="" fill="#FFFFFF" transform="translate(0,0)"/>
<path d="" fill="#FFFFFF" transform="translate(0,0)"/>
<path d="" fill="#FFFFFF" transform="translate(0,0)"/>
<path d="" fill="#FFFFFF" transform="translate(0,0)"/>
<path d="" fill="#FFFFFF" transform="translate(0,0)"/>
<path d="" fill="#FFFFFF" transform="translate(0,0)"/>
<path d="" fill="#FFFFFF" transform="translate(0,0)"/>
<path d="" fill="#FFFFFF" transform="translate(0,0)"/>
<path d="" fill="#FFFFFF" transform="translate(0,0)"/>
<path d="" fill="#FFFFFF" transform="translate(0,0)"/>
<path d="" fill="#FFFFFF" transform="translate(0,0)"/>
<path d="" fill="#FFFFFF" transform="translate(0,0)"/>
<path d="" fill="#FFFFFF" transform="translate(0,0)"/>
<path d="" fill="#FFFFFF" transform="translate(0,0)"/>
<path d="" fill="#FFFFFF" transform="translate(0,0)"/>
<path d="" fill="#FFFFFF" transform="translate(0,0)"/>
<path d="" fill="#FFFFFF" transform="translate(0,0)"/>
<path d="" fill="#FFFFFF" transform="translate(0,0)"/>
<path d="" fill="#FFFFFF" transform="translate(0,0)"/>
<path d="" fill="#FFFFFF" transform="translate(0,0)"/>
<path d="" fill="#FFFFFF" transform="translate(0,0)"/>
<path d="" fill="#FFFFFF" transform="translate(0,0)"/>
<path d="" fill="#FFFFFF" transform="translate(0,0)"/>
<path d="" fill="#FFFFFF" transform="translate(0,0)"/>
<path d="" fill="#FFFFFF" transform="translate(0,0)"/>
<path d="" fill="#FFFFFF" transform="translate(0,0)"/>
<path d="" fill="#FFFFFF" transform="translate(0,0)"/>
<path d="" fill="#FFFFFF" transform="translate(0,0)"/>
<path d="" fill="#FFFFFF" transform="translate(0,0)"/>
<path d="" fill="#FFFFFF" transform="translate(0,0)"/>
<path d="" fill="#FFFFFF" transform="translate(0,0)"/>
<path d="" fill="#FFFFFF" transform="translate(0,0)"/>
<path d="" fill="#FFFFFF" transform="translate(0,0)"/>
<path d="" fill="#FFFFFF" transform="translate(0,0)"/>
<path d="" fill="#FFFFFF" transform="translate(0,0)"/>
<path d="" fill="#FFFFFF" transform="translate(0,0)"/>
<path d="" fill="#FFFFFF" transform="translate(0,0)"/>
<path d="" fill="#FFFFFF" transform="translate(0,0)"/>
<path d="" fill="#FFFFFF" transform="translate(0,0)"/>
<path d="" fill="#FFFFFF" transform="translate(0,0)"/>
<path d="" fill="#FFFFFF" transform="translate(0,0)"/>
<path d="" fill="#FFFFFF" transform="translate(0,0)"/>
<path d="" fill="#FFFFFF" transform="translate(0,0)"/>
</svg>
