<?xml version="1.0" encoding="UTF-8"?>
<svg version="1.1" xmlns="http://www.w3.org/2000/svg" width="300" height="168">
<path d="M0 0 C99 0 198 0 300 0 C300 55.44 300 110.88 300 168 C201 168 102 168 0 168 C0 112.56 0 57.12 0 0 Z " fill="#E4141D" transform="translate(0,0)"/>
<path d="M0 0 C99 0 198 0 300 0 C300 55.44 300 110.88 300 168 C201 168 102 168 0 168 C0 112.56 0 57.12 0 0 Z M4 23 C5.65 31.25 7.3 39.5 9 48 C9.59683594 51.01898438 10.19367187 54.03796875 10.80859375 57.1484375 C13.68550795 71.69757592 16.65878272 86.20815144 19.93457031 100.67407227 C21.85412018 109.19840619 23.52727462 117.75346484 25.12109375 126.34375 C26.28462579 132.59048677 27.6238202 138.7967653 29 145 C31.71752371 143.93728123 34.39421591 142.82378599 37.05859375 141.6328125 C54.36812881 133.90855755 71.28177578 130.60538648 90.25 130.6875 C90.92975891 130.68965515 91.60951782 130.6918103 92.30987549 130.69403076 C110.63627025 130.78709638 129.25257806 133.23085188 145.1875 143 C148.29010607 144.86353997 148.29010607 144.86353997 151.9375 144.625 C153.62693929 143.72856283 155.314311 142.82805339 156.9921875 141.91015625 C162.33105008 139.09691721 167.60375076 137.02400053 173.375 135.3125 C174.04571533 135.11035889 174.71643066 134.90821777 175.4074707 134.69995117 C186.60597958 131.50056741 197.57000441 130.63753228 209.1875 130.6875 C210.21138321 130.69073273 210.21138321 130.69073273 211.25595093 130.69403076 C230.52877482 130.79156045 250.81981945 133.61250513 267.46875 144.1171875 C268.99419291 145.16648911 268.99419291 145.16648911 271 145 C276.03796753 122.43000519 276.03796753 122.43000519 280.51074219 99.7434082 C281.83612093 92.62264977 283.40463164 85.5646398 285 78.5 C287.58585584 67.03456454 289.85967552 55.55775219 292 44 C293.32 37.07 294.64 30.14 296 23 C199.64 23 103.28 23 4 23 Z " fill="#FEFCFC" transform="translate(0,0)"/>
<path d="M0 0 C5.75877111 4.36739017 8.88458387 9.39526531 10.74609375 16.32421875 C10.74609375 19.62421875 10.74609375 22.92421875 10.74609375 26.32421875 C-0.47390625 26.32421875 -11.69390625 26.32421875 -23.25390625 26.32421875 C-21.52904168 35.93459404 -21.52904168 35.93459404 -17.25390625 38.32421875 C-15.07362229 38.67715326 -15.07362229 38.67715326 -12.75390625 38.63671875 C-11.98046875 38.65347656 -11.20703125 38.67023438 -10.41015625 38.6875 C-7.74545849 38.23855636 -6.91681677 37.40792674 -5.25390625 35.32421875 C-4.75890625 34.33421875 -4.75890625 34.33421875 -4.25390625 33.32421875 C0.36609375 33.32421875 4.98609375 33.32421875 9.74609375 33.32421875 C8.52355996 39.4368877 6.30159891 42.22160006 1.74609375 46.32421875 C-4.40398225 50.38838276 -12.17920908 50.07943182 -19.25390625 49.32421875 C-26.4665269 47.59449525 -31.17295082 43.41087103 -35.25390625 37.32421875 C-38.61934634 30.00804464 -38.65390368 19.37865125 -36.00390625 11.76171875 C-32.54774994 4.97284028 -27.73369216 0.12439635 -20.36328125 -2.296875 C-13.3981848 -3.5480127 -6.20732943 -3.67793947 0 0 Z " fill="#FDF7F8" transform="translate(110.25390625,51.67578125)"/>
<path d="M0 0 C2.58675367 1.78456939 4.1777664 3.46831777 5.73828125 6.19921875 C6.23328125 9.16921875 6.23328125 9.16921875 6.73828125 12.19921875 C2.44828125 12.19921875 -1.84171875 12.19921875 -6.26171875 12.19921875 C-6.75671875 10.71421875 -6.75671875 10.71421875 -7.26171875 9.19921875 C-11.53949813 6.73625486 -15.46553548 6.81242978 -20.26171875 7.19921875 C-22.35156106 8.28596869 -22.35156106 8.28596869 -23.26171875 10.19921875 C-23.26171875 11.51921875 -23.26171875 12.83921875 -23.26171875 14.19921875 C-21.72064453 14.56273437 -21.72064453 14.56273437 -20.1484375 14.93359375 C2.45307435 20.35226999 2.45307435 20.35226999 6.92578125 24.94921875 C9.10832101 28.86273832 9.61932833 31.86950167 8.73828125 36.19921875 C6.24876018 42.31929137 2.83300589 45.60115491 -3.26171875 48.19921875 C-7.16275847 48.84412036 -10.94225161 48.81075895 -14.88671875 48.69921875 C-15.89734375 48.70179687 -16.90796875 48.704375 -17.94921875 48.70703125 C-25.04679761 48.61388717 -29.57549712 47.58018792 -35.01171875 42.76171875 C-38.35122782 38.95838898 -39.26171875 37.31510691 -39.26171875 32.19921875 C-34.64171875 32.19921875 -30.02171875 32.19921875 -25.26171875 32.19921875 C-24.60171875 33.84921875 -23.94171875 35.49921875 -23.26171875 37.19921875 C-20.19638711 38.73188457 -16.99417603 38.30198346 -13.63671875 38.26171875 C-12.9303125 38.25720703 -12.22390625 38.25269531 -11.49609375 38.24804688 C-9.751266 38.2362575 -8.00648175 38.21832199 -6.26171875 38.19921875 C-6.26171875 35.88921875 -6.26171875 33.57921875 -6.26171875 31.19921875 C-7.21691406 30.956875 -8.17210937 30.71453125 -9.15625 30.46484375 C-31.37703018 24.74458582 -31.37703018 24.74458582 -36.26171875 19.19921875 C-38.11041427 15.5018277 -37.59392017 11.24313215 -37.26171875 7.19921875 C-35.87123998 3.2015923 -33.94445696 1.85034943 -30.32421875 -0.05078125 C-21.23607799 -4.32343317 -8.94940913 -4.80335518 0 0 Z " fill="#FEF8F8" transform="translate(252.26171875,51.80078125)"/>
<path d="M0 0 C5.28 0 10.56 0 16 0 C19.63 10.56 23.26 21.12 27 32 C28.75510308 27.31972511 30.47362991 22.70249338 32.04296875 17.96875 C32.39423828 16.91171875 32.74550781 15.8546875 33.10742188 14.765625 C33.46384766 13.68796875 33.82027344 12.6103125 34.1875 11.5 C34.55552734 10.39140625 34.92355469 9.2828125 35.30273438 8.140625 C36.20319814 5.42753938 37.10178971 2.7138325 38 0 C43.28 0 48.56 0 54 0 C51.98314893 6.23970599 49.74169849 12.31412456 47.2421875 18.375 C46.7194072 19.65080933 46.7194072 19.65080933 46.18606567 20.95239258 C45.45637715 22.73106078 44.72523068 24.50913151 43.99267578 26.28662109 C42.86724967 29.01881546 41.74778752 31.75340108 40.62890625 34.48828125 C39.91701777 36.22149842 39.20479058 37.95457651 38.4921875 39.6875 C38.15677948 40.50718262 37.82137146 41.32686523 37.47579956 42.17138672 C35.11518171 47.88481829 35.11518171 47.88481829 34 49 C31.46950598 49.07313567 28.96695163 49.09247527 26.4375 49.0625 C25.72658203 49.05798828 25.01566406 49.05347656 24.28320312 49.04882812 C22.52209987 49.03700864 20.76103964 49.01907263 19 49 C7.17508474 20.62836452 7.17508474 20.62836452 2.75 9.3125 C2.46310303 8.58434082 2.17620605 7.85618164 1.88061523 7.10595703 C0 2.24695686 0 2.24695686 0 0 Z " fill="#FDF7F7" transform="translate(122,50)"/>
<path d="M0 0 C4.62 0 9.24 0 14 0 C14 12.54 14 25.08 14 38 C19.61 38 25.22 38 31 38 C31 41.63 31 45.26 31 49 C20.77 49 10.54 49 0 49 C0 32.83 0 16.66 0 0 Z " fill="#FDF5F5" transform="translate(40,50)"/>
<path d="M0 0 C4.62 0 9.24 0 14 0 C14 16.17 14 32.34 14 49 C9.38 49 4.76 49 0 49 C0 32.83 0 16.66 0 0 Z " fill="#FDF3F3" transform="translate(181,50)"/>
<path d="M0 0 C3.24807785 0.69554798 4.80411173 1.89740194 6.93359375 4.4140625 C7.26359375 6.7240625 7.59359375 9.0340625 7.93359375 11.4140625 C1.33359375 11.4140625 -5.26640625 11.4140625 -12.06640625 11.4140625 C-10.77669927 3.67582063 -8.15615754 -0.58588655 0 0 Z " fill="#E4131B" transform="translate(99.06640625,58.5859375)"/>
<path d="M0 0 C2.07631133 3.114467 2.36217986 4.27210492 1.7578125 7.8828125 C0.13008112 12.43039192 -3.07626582 16.20601596 -6 20 C-8.475 19.01 -8.475 19.01 -11 18 C-10.690625 17.2575 -10.38125 16.515 -10.0625 15.75 C-8.75714148 12.44425905 -8.75714148 12.44425905 -8 9 C-8.66 8.34 -9.32 7.68 -10 7 C-10.35877543 4.20155166 -10.33812547 2.596692 -8.9375 0.125 C-5.79705307 -1.69848531 -3.4014687 -0.8658284 0 0 Z " fill="#FDF2F3" transform="translate(211,46)"/>
</svg>
