<?xml version="1.0" encoding="UTF-8"?>
<svg version="1.1" xmlns="http://www.w3.org/2000/svg" width="259" height="194">
<path d="M0 0 C2.87402727 2.5958956 4.24432948 4.21369298 5 8 C5.54785156 8.00257812 6.09570312 8.00515625 6.66015625 8.0078125 C32.22543197 9.25489912 55.48351663 30.39335589 73.66796875 46.47509766 C88.32890523 59.4078893 105.39600503 71.69056609 125.70703125 71.38671875 C132.96303689 70.53458997 138.5649868 66.67491471 144 62 C149.60147073 54.75716107 153.23380283 46.46261842 156.875 38.125 C163.99213065 22.35087872 171.6497064 8.09368098 188.1875 0.625 C190.9987673 -0.34440252 193.07603198 -0.53163055 196 0 C198.375 1.4375 198.375 1.4375 200 4 C200.84029416 8.51872472 200.58453648 11.78422852 198.58203125 15.94921875 C195.05710906 20.1140663 191.02080483 22.02960992 186.1875 24.4375 C176.78229258 29.14355897 170.26954744 33.98083293 165.0625 43.3125 C164.73314453 43.89862061 164.40378906 44.48474121 164.06445312 45.08862305 C161.36391451 50.02146172 159.18705019 55.13707043 157 60.3125 C153.35357492 68.89179526 148.85740921 75.69137849 141 81 C140.34 81 139.68 81 139 81 C139.38671875 81.58523437 139.7734375 82.17046875 140.171875 82.7734375 C147.91410866 95.53662468 149.60876862 109.59333306 149.3215332 124.30004883 C149.3595516 131.27159117 151.39743441 135.75100666 156 141 C157.0624962 141.81941995 158.14510335 142.61371778 159.25 143.375 C162.80324182 146.76673083 162.92938937 149.31812462 163.3828125 154.0859375 C163.86844323 157.21828081 163.86844323 157.21828081 166.09765625 160.296875 C168.69245702 164.57279782 168.10784683 168.09467709 167.3125 172.875 C167.20744141 173.64585937 167.10238281 174.41671875 166.99414062 175.2109375 C166.19088033 180.80911967 166.19088033 180.80911967 165 182 C161.96924976 182.50512504 159.85818509 182.49168744 157.15234375 180.94140625 C152.68439974 177.44104247 149.91092528 173.68484852 149 168 C148.69121229 162.66664041 148.82516007 157.33585579 149 152 C148.15501953 151.62875 148.15501953 151.62875 147.29296875 151.25 C131.23162812 142.49424361 120.66632851 124.63679875 113.83959961 108.36914062 C110.30840154 100.02781405 106.45273616 93.86963601 98 90 C93.36964959 88.89286765 88.73576473 88.43273415 84 88 C60.64185776 85.74777356 45.65836454 77.84852852 29 61 C26.78345373 62.02911077 24.89130823 63.08234225 22.9375 64.5625 C18.03263175 68.2015958 11.80273554 67.5901087 6 67 C1.18435022 65.67556387 -3.38321838 63.89502781 -8 62 C-9.02609375 61.59652344 -10.0521875 61.19304687 -11.109375 60.77734375 C-13.41402427 59.86915569 -15.71004452 58.94447473 -18 58 C-18.99 60.31 -19.98 62.62 -21 65 C-25.06597681 65.48404486 -26.79892813 65.1191537 -30.375 63 C-33.49543011 59.43379416 -33.49543011 59.43379416 -33.8125 56.0625 C-33.5297392 52.66294404 -32.51562248 50.96922219 -30.0625 48.625 C-21.79564548 42.58130357 -12.71632778 43.97722866 -3 45 C-3.99 41.535 -3.99 41.535 -5 38 C-8.27224845 37.2988039 -10.54355516 36.88161555 -13.81640625 37.73046875 C-18.23615856 38.10465637 -19.85556888 36.55272249 -23.3125 33.875 C-24.36050781 33.08867188 -25.40851562 32.30234375 -26.48828125 31.4921875 C-29 29 -29 29 -30 26.34765625 C-30 24 -30 24 -27.6875 21.5625 C-26.800625 20.716875 -25.91375 19.87125 -25 19 C-24.690625 17.989375 -24.38125 16.97875 -24.0625 15.9375 C-22.64021744 12.00530704 -20.43882512 11.29255008 -17 9 C-15.10744549 6.45365393 -13.52474033 3.77961512 -12 1 C-10.0625 1.375 -10.0625 1.375 -8 2 C-7.67 2.66 -7.34 3.32 -7 4 C-6.01 4.33 -5.02 4.66 -4 5 C-3.71125 4.360625 -3.4225 3.72125 -3.125 3.0625 C-2 1 -2 1 0 0 Z " fill="#000000" transform="translate(46,6)"/>
<path d="" fill="#FFFFFF" transform="translate(0,0)"/>
<path d="" fill="#FFFFFF" transform="translate(0,0)"/>
<path d="" fill="#FFFFFF" transform="translate(0,0)"/>
<path d="" fill="#FFFFFF" transform="translate(0,0)"/>
<path d="" fill="#FFFFFF" transform="translate(0,0)"/>
<path d="" fill="#FFFFFF" transform="translate(0,0)"/>
<path d="" fill="#FFFFFF" transform="translate(0,0)"/>
<path d="" fill="#FFFFFF" transform="translate(0,0)"/>
<path d="" fill="#FFFFFF" transform="translate(0,0)"/>
<path d="" fill="#FFFFFF" transform="translate(0,0)"/>
<path d="" fill="#FFFFFF" transform="translate(0,0)"/>
<path d="" fill="#FFFFFF" transform="translate(0,0)"/>
<path d="" fill="#FFFFFF" transform="translate(0,0)"/>
<path d="" fill="#FFFFFF" transform="translate(0,0)"/>
<path d="" fill="#FFFFFF" transform="translate(0,0)"/>
<path d="" fill="#FFFFFF" transform="translate(0,0)"/>
<path d="" fill="#FFFFFF" transform="translate(0,0)"/>
<path d="" fill="#FFFFFF" transform="translate(0,0)"/>
<path d="" fill="#FFFFFF" transform="translate(0,0)"/>
<path d="" fill="#FFFFFF" transform="translate(0,0)"/>
<path d="" fill="#FFFFFF" transform="translate(0,0)"/>
<path d="" fill="#FFFFFF" transform="translate(0,0)"/>
<path d="" fill="#FFFFFF" transform="translate(0,0)"/>
<path d="" fill="#FFFFFF" transform="translate(0,0)"/>
<path d="" fill="#FFFFFF" transform="translate(0,0)"/>
<path d="" fill="#FFFFFF" transform="translate(0,0)"/>
<path d="" fill="#FFFFFF" transform="translate(0,0)"/>
<path d="" fill="#FFFFFF" transform="translate(0,0)"/>
<path d="" fill="#FFFFFF" transform="translate(0,0)"/>
<path d="" fill="#FFFFFF" transform="translate(0,0)"/>
<path d="" fill="#FFFFFF" transform="translate(0,0)"/>
<path d="" fill="#FFFFFF" transform="translate(0,0)"/>
<path d="" fill="#FFFFFF" transform="translate(0,0)"/>
<path d="" fill="#FFFFFF" transform="translate(0,0)"/>
<path d="" fill="#FFFFFF" transform="translate(0,0)"/>
<path d="" fill="#FFFFFF" transform="translate(0,0)"/>
<path d="" fill="#FFFFFF" transform="translate(0,0)"/>
<path d="" fill="#FFFFFF" transform="translate(0,0)"/>
<path d="" fill="#FFFFFF" transform="translate(0,0)"/>
<path d="" fill="#FFFFFF" transform="translate(0,0)"/>
<path d="" fill="#FFFFFF" transform="translate(0,0)"/>
<path d="" fill="#FFFFFF" transform="translate(0,0)"/>
<path d="" fill="#FFFFFF" transform="translate(0,0)"/>
<path d="" fill="#FFFFFF" transform="translate(0,0)"/>
<path d="" fill="#FFFFFF" transform="translate(0,0)"/>
<path d="" fill="#FFFFFF" transform="translate(0,0)"/>
<path d="" fill="#FFFFFF" transform="translate(0,0)"/>
<path d="" fill="#FFFFFF" transform="translate(0,0)"/>
<path d="" fill="#FFFFFF" transform="translate(0,0)"/>
<path d="" fill="#FFFFFF" transform="translate(0,0)"/>
<path d="" fill="#FFFFFF" transform="translate(0,0)"/>
<path d="" fill="#FFFFFF" transform="translate(0,0)"/>
<path d="" fill="#FFFFFF" transform="translate(0,0)"/>
<path d="" fill="#FFFFFF" transform="translate(0,0)"/>
<path d="" fill="#FFFFFF" transform="translate(0,0)"/>
<path d="" fill="#FFFFFF" transform="translate(0,0)"/>
<path d="" fill="#FFFFFF" transform="translate(0,0)"/>
<path d="" fill="#FFFFFF" transform="translate(0,0)"/>
<path d="" fill="#FFFFFF" transform="translate(0,0)"/>
<path d="" fill="#FFFFFF" transform="translate(0,0)"/>
<path d="" fill="#FFFFFF" transform="translate(0,0)"/>
<path d="" fill="#FFFFFF" transform="translate(0,0)"/>
<path d="" fill="#FFFFFF" transform="translate(0,0)"/>
<path d="" fill="#FFFFFF" transform="translate(0,0)"/>
<path d="" fill="#FFFFFF" transform="translate(0,0)"/>
<path d="" fill="#FFFFFF" transform="translate(0,0)"/>
<path d="" fill="#FFFFFF" transform="translate(0,0)"/>
<path d="" fill="#FFFFFF" transform="translate(0,0)"/>
<path d="" fill="#FFFFFF" transform="translate(0,0)"/>
<path d="" fill="#FFFFFF" transform="translate(0,0)"/>
<path d="" fill="#FFFFFF" transform="translate(0,0)"/>
<path d="" fill="#FFFFFF" transform="translate(0,0)"/>
<path d="" fill="#FFFFFF" transform="translate(0,0)"/>
</svg>
