<?xml version="1.0" encoding="UTF-8"?>
<svg version="1.1" xmlns="http://www.w3.org/2000/svg" width="275" height="183">
<path d="M0 0 C0.66 0 1.32 0 2 0 C4.72133555 7.37986364 7.44217118 14.75991139 10.16236782 22.14019489 C11.42546328 25.5671055 12.68873118 28.99395233 13.95239258 32.4206543 C15.17176806 35.72728455 16.39069135 39.03408117 17.60930061 42.34099388 C18.30085986 44.21729804 18.99288792 46.09342937 19.68492126 47.96955872 C20.10528152 49.11051498 20.52564178 50.25147125 20.95874023 51.42700195 C21.51500343 52.93590752 21.51500343 52.93590752 22.08250427 54.47529602 C22.74830505 56.30740251 23.38356631 58.15069894 24 60 C24.33 41.52 24.66 23.04 25 4 C21.7 4 18.4 4 15 4 C15 3.67 15 3.34 15 3 C21.22553948 2.90051381 27.45060782 2.82824069 33.67675781 2.78027344 C35.79109772 2.76025984 37.90538299 2.73304028 40.01953125 2.69824219 C43.07305448 2.64927059 46.12584078 2.62692818 49.1796875 2.609375 C50.11239471 2.58872986 51.04510193 2.56808472 52.006073 2.54681396 C59.86881468 2.54417502 66.22782013 4.6218866 72.875 8.8125 C77.58095953 13.6568701 79.26106766 17.3015036 79.5625 24 C79.35717305 29.66419166 78.1483763 33.1231143 74 37 C70.51558172 39.68590575 67.14308223 41.53773568 63 43 C63.60328125 43.19335938 64.2065625 43.38671875 64.828125 43.5859375 C66.02695312 43.97652344 66.02695312 43.97652344 67.25 44.375 C68.43335938 44.75785156 68.43335938 44.75785156 69.640625 45.1484375 C71.86842719 45.9525118 73.89409139 46.92373305 76 48 C76.21075668 47.42814972 76.42151337 46.85629944 76.63865662 46.26712036 C78.82714215 40.32975177 81.01722662 34.39297478 83.20825195 28.45654297 C84.02637325 26.23924738 84.84408301 24.0217999 85.66137695 21.80419922 C86.83437358 18.62167229 88.0088361 15.43968974 89.18359375 12.2578125 C89.55028671 11.26194122 89.91697968 10.26606995 90.29478455 9.24002075 C90.80520042 7.85881546 90.80520042 7.85881546 91.32592773 6.44970703 C91.6257103 5.6369632 91.92549286 4.82421936 92.23435974 3.98684692 C93 2 93 2 94 0 C94.66 0 95.32 0 96 0 C96.25563217 0.71091797 96.51126434 1.42183594 96.77464294 2.15429688 C99.22781585 8.97569695 101.68259553 15.7965159 104.13902187 22.616745 C105.40072597 26.12001094 106.66188511 29.62347073 107.92163086 33.12744141 C114.1558862 50.46654752 120.47374697 67.76799949 127 85 C130.63 85.33 134.26 85.66 138 86 C138 86.33 138 86.66 138 87 C126.12 87 114.24 87 102 87 C102 86.67 102 86.34 102 86 C105.3 86 108.6 86 112 86 C108.7 77.09 105.4 68.18 102 59 C95.73 59 89.46 59 83 59 C83.12375 61.990625 83.2475 64.98125 83.375 68.0625 C83.40899902 68.99070557 83.44299805 69.91891113 83.47802734 70.87524414 C83.6078285 78.99655532 83.6078285 78.99655532 87 86 C91.23314767 86.23961213 94.36736489 86.32488647 98 84 C98 84.66 98 85.32 98 86 C92.6598805 90.0001994 87.41030571 89.74815239 81 89 C76.67659575 87.70759446 73.92863177 85.30709784 71.5625 81.5 C70 78 70 78 70 74 C69.34 74 68.68 74 68 74 C67.814375 75.3303125 67.814375 75.3303125 67.625 76.6875 C67.05587264 79.70387502 66.23385564 82.20326054 65 85 C67.31 85.33 69.62 85.66 72 86 C72 86.33 72 86.66 72 87 C66.06 87 60.12 87 54 87 C54 86.67 54 86.34 54 86 C56.97 86 59.94 86 63 86 C63.19335938 85.26394531 63.38671875 84.52789062 63.5859375 83.76953125 C63.84632813 82.79371094 64.10671875 81.81789063 64.375 80.8125 C64.63023437 79.84957031 64.88546875 78.88664062 65.1484375 77.89453125 C66 75 66 75 67.08203125 72.6015625 C68.289268 69.18020219 68.30155846 66.18415007 68.3125 62.5625 C68.33763672 60.64630859 68.33763672 60.64630859 68.36328125 58.69140625 C67.97499115 54.74587778 67.0740561 52.35421514 65 49 C57.19709989 43.19784351 48.90020583 44.58236505 39 44 C39 57.86 39 71.72 39 86 C42.3 86 45.6 86 49 86 C49 86.33 49 86.66 49 87 C35.47 87 21.94 87 8 87 C8 86.67 8 86.34 8 86 C11.3 86 14.6 86 18 86 C17.72736328 85.25838623 17.45472656 84.51677246 17.17382812 83.75268555 C15.94423816 80.39942555 14.7220386 77.04351892 13.5 73.6875 C12.85611328 71.93663086 12.85611328 71.93663086 12.19921875 70.15039062 C11.59013672 68.47299805 11.59013672 68.47299805 10.96875 66.76171875 C10.59169922 65.73006592 10.21464844 64.69841309 9.82617188 63.63549805 C9 61 9 61 9 58 C-0.57 58 -10.14 58 -20 58 C-20.33 59.98 -20.66 61.96 -21 64 C-21.56659957 65.74335821 -22.18324837 67.47121009 -22.84765625 69.1796875 C-23.20537109 70.1078125 -23.56308594 71.0359375 -23.93164062 71.9921875 C-24.30482422 72.94351563 -24.67800781 73.89484375 -25.0625 74.875 C-25.43955078 75.84953125 -25.81660156 76.8240625 -26.20507812 77.828125 C-27.13164376 80.22077549 -28.06340791 82.61126054 -29 85 C-27.55741064 84.38864383 -26.11788922 83.77004529 -24.6796875 83.1484375 C-23.87772949 82.80474121 -23.07577148 82.46104492 -22.24951172 82.10693359 C-16.92633675 79.48752017 -14.20337541 75.35105456 -12 70 C-11.23182014 67.34497837 -10.60512202 64.69977518 -10 62 C-9.67 62 -9.34 62 -9 62 C-9 70.25 -9 78.5 -9 87 C-30.45 87 -51.9 87 -74 87 C-72.54564231 82.63692692 -71.39311354 79.64920861 -69.12890625 75.83203125 C-68.55930176 74.86475098 -67.98969727 73.8974707 -67.40283203 72.90087891 C-66.49186768 71.37213135 -66.49186768 71.37213135 -65.5625 69.8125 C-64.30061436 67.67067124 -63.03889795 65.52874275 -61.77734375 63.38671875 C-61.14554199 62.31856934 -60.51374023 61.25041992 -59.86279297 60.14990234 C-57.10289339 55.48303152 -54.35802926 50.80764799 -51.625 46.125 C-51.15521729 45.32940674 -50.68543457 44.53381348 -50.20141602 43.71411133 C-47.85007443 40.09845356 -47.85007443 40.09845356 -47 36 C-46.58322998 35.59612061 -46.16645996 35.19224121 -45.73706055 34.77612305 C-43.36460236 32.35031373 -41.85312678 29.51984678 -40.20703125 26.58203125 C-39.85613937 25.96478683 -39.5052475 25.34754242 -39.14372253 24.71159363 C-38.028722 22.74779106 -36.92053917 20.78023717 -35.8125 18.8125 C-35.05578575 17.47696005 -34.29862919 16.14167062 -33.54101562 14.80664062 C-31.68887334 11.54064057 -29.84283429 8.2712604 -28 5 C-31.62456014 4.85271542 -35.24833521 4.76527774 -38.875 4.6875 C-40.39480469 4.6246582 -40.39480469 4.6246582 -41.9453125 4.56054688 C-49.30423942 4.44261535 -54.90381098 5.73614543 -61 10 C-66.04333487 15.47592972 -67.11106635 21.7823895 -68 29 C-68.66 29 -69.32 29 -70 29 C-70 20.42 -70 11.84 -70 3 C-50.53 3 -31.06 3 -11 3 C-12.55384575 6.88461437 -14.13764688 10.17185557 -16.203125 13.76953125 C-16.84644775 14.89311035 -17.48977051 16.01668945 -18.15258789 17.17431641 C-18.85159872 18.38711721 -19.55073939 19.59984319 -20.25 20.8125 C-20.9747148 22.07459978 -21.69924024 23.33680831 -22.42358398 24.59912109 C-27.49279153 33.42369452 -32.60836265 42.2211376 -37.74755859 51.00512695 C-44.55294079 62.63871789 -51.27211089 74.32140003 -58 86 C-49.09 86 -40.18 86 -31 86 C-30.01 82.7 -29.02 79.4 -28 76 C-27.44262135 74.33066516 -26.87170969 72.66561742 -26.2734375 71.01049805 C-25.9684584 70.16294952 -25.66347931 69.315401 -25.34925842 68.44216919 C-25.02775314 67.55762054 -24.70624786 66.6730719 -24.375 65.76171875 C-24.03121811 64.80981659 -23.68743622 63.85791443 -23.33323669 62.87716675 C-22.22523187 59.81282118 -21.11288311 56.75007695 -20 53.6875 C-19.62271759 52.64641083 -19.24543518 51.60532166 -18.85671997 50.53268433 C-12.72981326 33.62704159 -6.47770754 16.7745056 0 0 Z M39 4 C39 16.87 39 29.74 39 43 C55.9080528 43.37896145 55.9080528 43.37896145 62 40 C65.31737391 35.07647673 65.4600201 30.724687 65.375 25 C65.38660156 24.21882813 65.39820313 23.43765625 65.41015625 22.6328125 C65.38157579 16.97388188 64.42634474 12.72397637 60.53515625 8.35546875 C53.29477689 2.61309891 49.12658591 4 39 4 Z M-6 20 C-7.8555538 24.94637193 -9.7068576 29.89430516 -11.55419922 34.84375 C-12.1835592 36.52810836 -12.81408897 38.21203009 -13.44580078 39.89550781 C-14.35234799 42.31201826 -15.25470972 44.73005537 -16.15625 47.1484375 C-16.5827887 48.28132706 -16.5827887 48.28132706 -17.01794434 49.43710327 C-18.48300316 53.11832947 -18.48300316 53.11832947 -19 57 C-10.09 57 -1.18 57 8 57 C3.90789423 44.55999847 -0.28298896 32.21584911 -5 20 C-5.33 20 -5.66 20 -6 20 Z M88 20 C86.32266767 24.13037363 84.68459493 28.2736452 83.08056641 32.43286133 C82.53013734 33.84420547 81.96935828 35.25155986 81.39794922 36.65454102 C80.57596913 38.67793178 79.79287231 40.7129819 79.015625 42.75390625 C78.53383789 43.97408447 78.05205078 45.1942627 77.55566406 46.45141602 C76.49511747 50.80776987 76.49511747 50.80776987 81 57 C87.93 57 94.86 57 102 57 C100.58443008 52.89545218 99.16757436 48.79135555 97.75 44.6875 C97.35425781 43.53958984 96.95851562 42.39167969 96.55078125 41.20898438 C94.0989556 34.11476754 91.59092484 27.04463529 89 20 C88.67 20 88.34 20 88 20 Z " fill="#010101" transform="translate(106,47)"/>
<path d="" fill="#FFFFFF" transform="translate(0,0)"/>
<path d="" fill="#FFFFFF" transform="translate(0,0)"/>
<path d="" fill="#FFFFFF" transform="translate(0,0)"/>
<path d="" fill="#FFFFFF" transform="translate(0,0)"/>
<path d="" fill="#FFFFFF" transform="translate(0,0)"/>
<path d="" fill="#FFFFFF" transform="translate(0,0)"/>
<path d="" fill="#FFFFFF" transform="translate(0,0)"/>
<path d="" fill="#FFFFFF" transform="translate(0,0)"/>
<path d="" fill="#FFFFFF" transform="translate(0,0)"/>
<path d="" fill="#FFFFFF" transform="translate(0,0)"/>
<path d="" fill="#FFFFFF" transform="translate(0,0)"/>
<path d="" fill="#FFFFFF" transform="translate(0,0)"/>
<path d="" fill="#FFFFFF" transform="translate(0,0)"/>
<path d="" fill="#FFFFFF" transform="translate(0,0)"/>
<path d="" fill="#FFFFFF" transform="translate(0,0)"/>
<path d="" fill="#FFFFFF" transform="translate(0,0)"/>
<path d="" fill="#FFFFFF" transform="translate(0,0)"/>
<path d="" fill="#FFFFFF" transform="translate(0,0)"/>
<path d="" fill="#FFFFFF" transform="translate(0,0)"/>
<path d="" fill="#FFFFFF" transform="translate(0,0)"/>
<path d="" fill="#FFFFFF" transform="translate(0,0)"/>
<path d="" fill="#FFFFFF" transform="translate(0,0)"/>
<path d="" fill="#FFFFFF" transform="translate(0,0)"/>
<path d="" fill="#FFFFFF" transform="translate(0,0)"/>
<path d="" fill="#FEFFFF" transform="translate(0,0)"/>
<path d="" fill="#FFFFFF" transform="translate(0,0)"/>
<path d="" fill="#FFFFFF" transform="translate(0,0)"/>
<path d="" fill="#FFFFFF" transform="translate(0,0)"/>
<path d="" fill="#FFFFFF" transform="translate(0,0)"/>
<path d="" fill="#FFFFFF" transform="translate(0,0)"/>
<path d="" fill="#FFFFFF" transform="translate(0,0)"/>
<path d="" fill="#FFFFFF" transform="translate(0,0)"/>
<path d="" fill="#FFFFFF" transform="translate(0,0)"/>
<path d="" fill="#FFFFFF" transform="translate(0,0)"/>
<path d="" fill="#FFFFFF" transform="translate(0,0)"/>
<path d="" fill="#FFFFFF" transform="translate(0,0)"/>
<path d="" fill="#FFFFFF" transform="translate(0,0)"/>
<path d="" fill="#FFFFFF" transform="translate(0,0)"/>
<path d="" fill="#FFFFFF" transform="translate(0,0)"/>
<path d="" fill="#FFFFFF" transform="translate(0,0)"/>
<path d="" fill="#FFFFFF" transform="translate(0,0)"/>
<path d="" fill="#FFFFFF" transform="translate(0,0)"/>
<path d="" fill="#FFFFFF" transform="translate(0,0)"/>
<path d="" fill="#FFFFFF" transform="translate(0,0)"/>
<path d="" fill="#FFFFFF" transform="translate(0,0)"/>
<path d="" fill="#FFFFFF" transform="translate(0,0)"/>
<path d="" fill="#FFFFFF" transform="translate(0,0)"/>
<path d="" fill="#FFFFFF" transform="translate(0,0)"/>
<path d="" fill="#FFFFFF" transform="translate(0,0)"/>
<path d="" fill="#FFFFFF" transform="translate(0,0)"/>
<path d="" fill="#FFFFFF" transform="translate(0,0)"/>
<path d="" fill="#FFFFFF" transform="translate(0,0)"/>
<path d="" fill="#FFFFFF" transform="translate(0,0)"/>
<path d="" fill="#FFFFFF" transform="translate(0,0)"/>
<path d="" fill="#FFFFFF" transform="translate(0,0)"/>
<path d="" fill="#FFFFFF" transform="translate(0,0)"/>
<path d="" fill="#FFFFFF" transform="translate(0,0)"/>
<path d="" fill="#FFFFFF" transform="translate(0,0)"/>
<path d="" fill="#FFFFFF" transform="translate(0,0)"/>
<path d="" fill="#FFFFFF" transform="translate(0,0)"/>
<path d="" fill="#FFFFFF" transform="translate(0,0)"/>
<path d="" fill="#FFFFFF" transform="translate(0,0)"/>
<path d="" fill="#FFFFFF" transform="translate(0,0)"/>
<path d="" fill="#FFFFFF" transform="translate(0,0)"/>
<path d="" fill="#FFFFFF" transform="translate(0,0)"/>
<path d="" fill="#FFFFFF" transform="translate(0,0)"/>
<path d="" fill="#FFFFFF" transform="translate(0,0)"/>
<path d="" fill="#FFFFFF" transform="translate(0,0)"/>
<path d="" fill="#FFFFFF" transform="translate(0,0)"/>
<path d="" fill="#FFFFFF" transform="translate(0,0)"/>
<path d="" fill="#FFFFFF" transform="translate(0,0)"/>
<path d="" fill="#FFFFFF" transform="translate(0,0)"/>
<path d="" fill="#FFFFFF" transform="translate(0,0)"/>
<path d="" fill="#FFFFFF" transform="translate(0,0)"/>
<path d="" fill="#FFFFFF" transform="translate(0,0)"/>
<path d="" fill="#FFFFFF" transform="translate(0,0)"/>
<path d="" fill="#FFFFFF" transform="translate(0,0)"/>
<path d="" fill="#FFFFFF" transform="translate(0,0)"/>
<path d="" fill="#FFFFFF" transform="translate(0,0)"/>
</svg>
